<?xml version="1.0" encoding="UTF-8" standalone="no"?><!DOCTYPE svg PUBLIC "-//W3C//DTD SVG 1.1//EN" "http://www.w3.org/Graphics/SVG/1.1/DTD/svg11.dtd"><!-- Generated by graphviz version 2.40.1 (20161225.0304)
 --><!-- Title: Tree Pages: 1 --><svg xmlns="http://www.w3.org/2000/svg" xmlns:xlink="http://www.w3.org/1999/xlink" width="2287pt" height="723pt" viewBox="0.00 0.00 2287.31 723.20">
<g id="graph0" class="graph" transform="scale(1 1) rotate(0) translate(4 719.2)">
<title>Tree</title>
<polygon fill="#ffffff" stroke="transparent" points="-4,4 -4,-719.2 2283.3085,-719.2 2283.3085,4 -4,4"/>
<!-- 0 -->
<g id="node1" class="node">
<title>0</title>
<path fill="#f5cfb4" stroke="#000000" d="M874.8169,-715.2C874.8169,-715.2 771.4797,-715.2 771.4797,-715.2 765.4797,-715.2 759.4797,-709.2 759.4797,-703.2 759.4797,-703.2 759.4797,-635.2 759.4797,-635.2 759.4797,-629.2 765.4797,-623.2 771.4797,-623.2 771.4797,-623.2 874.8169,-623.2 874.8169,-623.2 880.8169,-623.2 886.8169,-629.2 886.8169,-635.2 886.8169,-635.2 886.8169,-703.2 886.8169,-703.2 886.8169,-709.2 880.8169,-715.2 874.8169,-715.2"/>
<text text-anchor="start" x="792.4113" y="-698.6" font-family="Helvetica,sans-Serif" font-size="14.00" fill="#000000">Sex ≤ 0.5</text>
<text text-anchor="start" x="786.7707" y="-681.8" font-family="Helvetica,sans-Serif" font-size="14.00" fill="#000000">gini = 0.473</text>
<text text-anchor="start" x="777.439" y="-665" font-family="Helvetica,sans-Serif" font-size="14.00" fill="#000000">samples = 891</text>
<text text-anchor="start" x="767.3142" y="-648.2" font-family="Helvetica,sans-Serif" font-size="14.00" fill="#000000">value = [549, 342]</text>
<text text-anchor="start" x="784.8366" y="-631.4" font-family="Helvetica,sans-Serif" font-size="14.00" fill="#000000">class = Died</text>
</g>
<!-- 1 -->
<g id="node2" class="node">
<title>1</title>
<path fill="#eb9e67" stroke="#000000" d="M556.8169,-587.2C556.8169,-587.2 453.4797,-587.2 453.4797,-587.2 447.4797,-587.2 441.4797,-581.2 441.4797,-575.2 441.4797,-575.2 441.4797,-507.2 441.4797,-507.2 441.4797,-501.2 447.4797,-495.2 453.4797,-495.2 453.4797,-495.2 556.8169,-495.2 556.8169,-495.2 562.8169,-495.2 568.8169,-501.2 568.8169,-507.2 568.8169,-507.2 568.8169,-575.2 568.8169,-575.2 568.8169,-581.2 562.8169,-587.2 556.8169,-587.2"/>
<text text-anchor="start" x="474.02" y="-570.6" font-family="Helvetica,sans-Serif" font-size="14.00" fill="#000000">Age ≤ 6.5</text>
<text text-anchor="start" x="468.7707" y="-553.8" font-family="Helvetica,sans-Serif" font-size="14.00" fill="#000000">gini = 0.306</text>
<text text-anchor="start" x="459.439" y="-537" font-family="Helvetica,sans-Serif" font-size="14.00" fill="#000000">samples = 577</text>
<text text-anchor="start" x="449.3142" y="-520.2" font-family="Helvetica,sans-Serif" font-size="14.00" fill="#000000">value = [468, 109]</text>
<text text-anchor="start" x="466.8366" y="-503.4" font-family="Helvetica,sans-Serif" font-size="14.00" fill="#000000">class = Died</text>
</g>
<!-- 0&#45;&gt;1 -->
<g id="edge1" class="edge">
<title>0-&gt;1</title>
<path fill="none" stroke="#000000" d="M759.1788,-643.4513C706.8863,-622.4027 632.9325,-592.6352 578.2961,-570.6431"/>
<polygon fill="#000000" stroke="#000000" points="579.5992,-567.3948 569.0156,-566.9076 576.9854,-573.8885 579.5992,-567.3948"/>
<text text-anchor="middle" x="578.8138" y="-585.7075" font-family="Helvetica,sans-Serif" font-size="14.00" fill="#000000">True</text>
</g>
<!-- 22 -->
<g id="node23" class="node">
<title>22</title>
<path fill="#7ebfee" stroke="#000000" d="M1184.034,-587.2C1184.034,-587.2 1088.2626,-587.2 1088.2626,-587.2 1082.2626,-587.2 1076.2626,-581.2 1076.2626,-575.2 1076.2626,-575.2 1076.2626,-507.2 1076.2626,-507.2 1076.2626,-501.2 1082.2626,-495.2 1088.2626,-495.2 1088.2626,-495.2 1184.034,-495.2 1184.034,-495.2 1190.034,-495.2 1196.034,-501.2 1196.034,-507.2 1196.034,-507.2 1196.034,-575.2 1196.034,-575.2 1196.034,-581.2 1190.034,-587.2 1184.034,-587.2"/>
<text text-anchor="start" x="1096.858" y="-570.6" font-family="Helvetica,sans-Serif" font-size="14.00" fill="#000000">Pclass ≤ 2.5</text>
<text text-anchor="start" x="1099.7707" y="-553.8" font-family="Helvetica,sans-Serif" font-size="14.00" fill="#000000">gini = 0.383</text>
<text text-anchor="start" x="1090.439" y="-537" font-family="Helvetica,sans-Serif" font-size="14.00" fill="#000000">samples = 314</text>
<text text-anchor="start" x="1084.2055" y="-520.2" font-family="Helvetica,sans-Serif" font-size="14.00" fill="#000000">value = [81, 233]</text>
<text text-anchor="start" x="1085" y="-503.4" font-family="Helvetica,sans-Serif" font-size="14.00" fill="#000000">class = Survived</text>
</g>
<!-- 0&#45;&gt;22 -->
<g id="edge22" class="edge">
<title>0-&gt;22</title>
<path fill="none" stroke="#000000" d="M886.8658,-643.143C939.1377,-621.7666 1013.0229,-591.5516 1066.7782,-569.5686"/>
<polygon fill="#000000" stroke="#000000" points="1068.303,-572.7265 1076.2341,-565.7016 1065.6533,-566.2473 1068.303,-572.7265"/>
<text text-anchor="middle" x="1066.5631" y="-584.5553" font-family="Helvetica,sans-Serif" font-size="14.00" fill="#000000">False</text>
</g>
<!-- 2 -->
<g id="node3" class="node">
<title>2</title>
<path fill="#9ccef2" stroke="#000000" d="M236.4453,-459.2C236.4453,-459.2 141.8513,-459.2 141.8513,-459.2 135.8513,-459.2 129.8513,-453.2 129.8513,-447.2 129.8513,-447.2 129.8513,-379.2 129.8513,-379.2 129.8513,-373.2 135.8513,-367.2 141.8513,-367.2 141.8513,-367.2 236.4453,-367.2 236.4453,-367.2 242.4453,-367.2 248.4453,-373.2 248.4453,-379.2 248.4453,-379.2 248.4453,-447.2 248.4453,-447.2 248.4453,-453.2 242.4453,-459.2 236.4453,-459.2"/>
<text text-anchor="start" x="151.7984" y="-442.6" font-family="Helvetica,sans-Serif" font-size="14.00" fill="#000000">SibSp ≤ 2.5</text>
<text text-anchor="start" x="152.7707" y="-425.8" font-family="Helvetica,sans-Serif" font-size="14.00" fill="#000000">gini = 0.444</text>
<text text-anchor="start" x="147.3303" y="-409" font-family="Helvetica,sans-Serif" font-size="14.00" fill="#000000">samples = 24</text>
<text text-anchor="start" x="144.9881" y="-392.2" font-family="Helvetica,sans-Serif" font-size="14.00" fill="#000000">value = [8, 16]</text>
<text text-anchor="start" x="138" y="-375.4" font-family="Helvetica,sans-Serif" font-size="14.00" fill="#000000">class = Survived</text>
</g>
<!-- 1&#45;&gt;2 -->
<g id="edge2" class="edge">
<title>1-&gt;2</title>
<path fill="none" stroke="#000000" d="M441.201,-515.2973C388.0356,-493.7619 312.532,-463.1782 258.0396,-441.1054"/>
<polygon fill="#000000" stroke="#000000" points="259.0434,-437.7358 248.4609,-437.2253 256.4153,-444.2237 259.0434,-437.7358"/>
</g>
<!-- 9 -->
<g id="node10" class="node">
<title>9</title>
<path fill="#ea9a61" stroke="#000000" d="M553.034,-459.2C553.034,-459.2 457.2626,-459.2 457.2626,-459.2 451.2626,-459.2 445.2626,-453.2 445.2626,-447.2 445.2626,-447.2 445.2626,-379.2 445.2626,-379.2 445.2626,-373.2 451.2626,-367.2 457.2626,-367.2 457.2626,-367.2 553.034,-367.2 553.034,-367.2 559.034,-367.2 565.034,-373.2 565.034,-379.2 565.034,-379.2 565.034,-447.2 565.034,-447.2 565.034,-453.2 559.034,-459.2 553.034,-459.2"/>
<text text-anchor="start" x="465.858" y="-442.6" font-family="Helvetica,sans-Serif" font-size="14.00" fill="#000000">Pclass ≤ 1.5</text>
<text text-anchor="start" x="472.662" y="-425.8" font-family="Helvetica,sans-Serif" font-size="14.00" fill="#000000">gini = 0.28</text>
<text text-anchor="start" x="459.439" y="-409" font-family="Helvetica,sans-Serif" font-size="14.00" fill="#000000">samples = 553</text>
<text text-anchor="start" x="453.2055" y="-392.2" font-family="Helvetica,sans-Serif" font-size="14.00" fill="#000000">value = [460, 93]</text>
<text text-anchor="start" x="466.8366" y="-375.4" font-family="Helvetica,sans-Serif" font-size="14.00" fill="#000000">class = Died</text>
</g>
<!-- 1&#45;&gt;9 -->
<g id="edge9" class="edge">
<title>1-&gt;9</title>
<path fill="none" stroke="#000000" d="M505.1483,-494.9891C505.1483,-486.7417 505.1483,-478.0661 505.1483,-469.5724"/>
<polygon fill="#000000" stroke="#000000" points="508.6484,-469.3431 505.1483,-459.3431 501.6484,-469.3431 508.6484,-469.3431"/>
</g>
<!-- 3 -->
<g id="node4" class="node">
<title>3</title>
<path fill="#399de5" stroke="#000000" d="M106.4453,-322.9003C106.4453,-322.9003 11.8513,-322.9003 11.8513,-322.9003 5.8513,-322.9003 -.1487,-316.9003 -.1487,-310.9003 -.1487,-310.9003 -.1487,-259.4997 -.1487,-259.4997 -.1487,-253.4997 5.8513,-247.4997 11.8513,-247.4997 11.8513,-247.4997 106.4453,-247.4997 106.4453,-247.4997 112.4453,-247.4997 118.4453,-253.4997 118.4453,-259.4997 118.4453,-259.4997 118.4453,-310.9003 118.4453,-310.9003 118.4453,-316.9003 112.4453,-322.9003 106.4453,-322.9003"/>
<text text-anchor="start" x="30.5533" y="-306.2" font-family="Helvetica,sans-Serif" font-size="14.00" fill="#000000">gini = 0.0</text>
<text text-anchor="start" x="17.3303" y="-289.4" font-family="Helvetica,sans-Serif" font-size="14.00" fill="#000000">samples = 15</text>
<text text-anchor="start" x="14.9881" y="-272.6" font-family="Helvetica,sans-Serif" font-size="14.00" fill="#000000">value = [0, 15]</text>
<text text-anchor="start" x="8" y="-255.8" font-family="Helvetica,sans-Serif" font-size="14.00" fill="#000000">class = Survived</text>
</g>
<!-- 2&#45;&gt;3 -->
<g id="edge3" class="edge">
<title>2-&gt;3</title>
<path fill="none" stroke="#000000" d="M142.2153,-366.9891C130.0492,-355.0101 116.9658,-342.128 104.8632,-330.2116"/>
<polygon fill="#000000" stroke="#000000" points="107.0527,-327.4556 97.4714,-322.9335 102.1415,-332.4436 107.0527,-327.4556"/>
</g>
<!-- 4 -->
<g id="node5" class="node">
<title>4</title>
<path fill="#e89152" stroke="#000000" d="M230.1304,-331.2C230.1304,-331.2 148.1662,-331.2 148.1662,-331.2 142.1662,-331.2 136.1662,-325.2 136.1662,-319.2 136.1662,-319.2 136.1662,-251.2 136.1662,-251.2 136.1662,-245.2 142.1662,-239.2 148.1662,-239.2 148.1662,-239.2 230.1304,-239.2 230.1304,-239.2 236.1304,-239.2 242.1304,-245.2 242.1304,-251.2 242.1304,-251.2 242.1304,-319.2 242.1304,-319.2 242.1304,-325.2 236.1304,-331.2 230.1304,-331.2"/>
<text text-anchor="start" x="144.4078" y="-314.6" font-family="Helvetica,sans-Serif" font-size="14.00" fill="#000000">Fare ≤ 31.331</text>
<text text-anchor="start" x="152.7707" y="-297.8" font-family="Helvetica,sans-Serif" font-size="14.00" fill="#000000">gini = 0.198</text>
<text text-anchor="start" x="151.2216" y="-281" font-family="Helvetica,sans-Serif" font-size="14.00" fill="#000000">samples = 9</text>
<text text-anchor="start" x="148.8794" y="-264.2" font-family="Helvetica,sans-Serif" font-size="14.00" fill="#000000">value = [8, 1]</text>
<text text-anchor="start" x="150.8366" y="-247.4" font-family="Helvetica,sans-Serif" font-size="14.00" fill="#000000">class = Died</text>
</g>
<!-- 2&#45;&gt;4 -->
<g id="edge4" class="edge">
<title>2-&gt;4</title>
<path fill="none" stroke="#000000" d="M189.1483,-366.9891C189.1483,-358.7417 189.1483,-350.0661 189.1483,-341.5724"/>
<polygon fill="#000000" stroke="#000000" points="192.6484,-341.3431 189.1483,-331.3431 185.6484,-341.3431 192.6484,-341.3431"/>
</g>
<!-- 5 -->
<g id="node6" class="node">
<title>5</title>
<path fill="#e58139" stroke="#000000" d="M106.1872,-194.9003C106.1872,-194.9003 34.1094,-194.9003 34.1094,-194.9003 28.1094,-194.9003 22.1094,-188.9003 22.1094,-182.9003 22.1094,-182.9003 22.1094,-131.4997 22.1094,-131.4997 22.1094,-125.4997 28.1094,-119.4997 34.1094,-119.4997 34.1094,-119.4997 106.1872,-119.4997 106.1872,-119.4997 112.1872,-119.4997 118.1872,-125.4997 118.1872,-131.4997 118.1872,-131.4997 118.1872,-182.9003 118.1872,-182.9003 118.1872,-188.9003 112.1872,-194.9003 106.1872,-194.9003"/>
<text text-anchor="start" x="41.5533" y="-178.2" font-family="Helvetica,sans-Serif" font-size="14.00" fill="#000000">gini = 0.0</text>
<text text-anchor="start" x="32.2216" y="-161.4" font-family="Helvetica,sans-Serif" font-size="14.00" fill="#000000">samples = 5</text>
<text text-anchor="start" x="29.8794" y="-144.6" font-family="Helvetica,sans-Serif" font-size="14.00" fill="#000000">value = [5, 0]</text>
<text text-anchor="start" x="31.8366" y="-127.8" font-family="Helvetica,sans-Serif" font-size="14.00" fill="#000000">class = Died</text>
</g>
<!-- 4&#45;&gt;5 -->
<g id="edge5" class="edge">
<title>4-&gt;5</title>
<path fill="none" stroke="#000000" d="M146.1866,-238.9891C135.155,-227.1231 123.2995,-214.371 112.3088,-202.5492"/>
<polygon fill="#000000" stroke="#000000" points="114.601,-199.8743 105.2287,-194.9335 109.4742,-204.6405 114.601,-199.8743"/>
</g>
<!-- 6 -->
<g id="node7" class="node">
<title>6</title>
<path fill="#eeab7b" stroke="#000000" d="M230.1304,-203.2C230.1304,-203.2 148.1662,-203.2 148.1662,-203.2 142.1662,-203.2 136.1662,-197.2 136.1662,-191.2 136.1662,-191.2 136.1662,-123.2 136.1662,-123.2 136.1662,-117.2 142.1662,-111.2 148.1662,-111.2 148.1662,-111.2 230.1304,-111.2 230.1304,-111.2 236.1304,-111.2 242.1304,-117.2 242.1304,-123.2 242.1304,-123.2 242.1304,-191.2 242.1304,-191.2 242.1304,-197.2 236.1304,-203.2 230.1304,-203.2"/>
<text text-anchor="start" x="144.4078" y="-186.6" font-family="Helvetica,sans-Serif" font-size="14.00" fill="#000000">Fare ≤ 35.538</text>
<text text-anchor="start" x="152.7707" y="-169.8" font-family="Helvetica,sans-Serif" font-size="14.00" fill="#000000">gini = 0.375</text>
<text text-anchor="start" x="151.2216" y="-153" font-family="Helvetica,sans-Serif" font-size="14.00" fill="#000000">samples = 4</text>
<text text-anchor="start" x="148.8794" y="-136.2" font-family="Helvetica,sans-Serif" font-size="14.00" fill="#000000">value = [3, 1]</text>
<text text-anchor="start" x="150.8366" y="-119.4" font-family="Helvetica,sans-Serif" font-size="14.00" fill="#000000">class = Died</text>
</g>
<!-- 4&#45;&gt;6 -->
<g id="edge6" class="edge">
<title>4-&gt;6</title>
<path fill="none" stroke="#000000" d="M189.1483,-238.9891C189.1483,-230.7417 189.1483,-222.0661 189.1483,-213.5724"/>
<polygon fill="#000000" stroke="#000000" points="192.6484,-213.3431 189.1483,-203.3431 185.6484,-213.3431 192.6484,-213.3431"/>
</g>
<!-- 7 -->
<g id="node8" class="node">
<title>7</title>
<path fill="#399de5" stroke="#000000" d="M111.4453,-75.3003C111.4453,-75.3003 16.8513,-75.3003 16.8513,-75.3003 10.8513,-75.3003 4.8513,-69.3003 4.8513,-63.3003 4.8513,-63.3003 4.8513,-11.8997 4.8513,-11.8997 4.8513,-5.8997 10.8513,.1003 16.8513,.1003 16.8513,.1003 111.4453,.1003 111.4453,.1003 117.4453,.1003 123.4453,-5.8997 123.4453,-11.8997 123.4453,-11.8997 123.4453,-63.3003 123.4453,-63.3003 123.4453,-69.3003 117.4453,-75.3003 111.4453,-75.3003"/>
<text text-anchor="start" x="35.5533" y="-58.6" font-family="Helvetica,sans-Serif" font-size="14.00" fill="#000000">gini = 0.0</text>
<text text-anchor="start" x="26.2216" y="-41.8" font-family="Helvetica,sans-Serif" font-size="14.00" fill="#000000">samples = 1</text>
<text text-anchor="start" x="23.8794" y="-25" font-family="Helvetica,sans-Serif" font-size="14.00" fill="#000000">value = [0, 1]</text>
<text text-anchor="start" x="13" y="-8.2" font-family="Helvetica,sans-Serif" font-size="14.00" fill="#000000">class = Survived</text>
</g>
<!-- 6&#45;&gt;7 -->
<g id="edge7" class="edge">
<title>6-&gt;7</title>
<path fill="none" stroke="#000000" d="M140.82,-110.9595C130.9657,-101.5309 120.6152,-91.6276 110.82,-82.2555"/>
<polygon fill="#000000" stroke="#000000" points="113.1003,-79.5932 103.4552,-75.2088 108.261,-84.651 113.1003,-79.5932"/>
</g>
<!-- 8 -->
<g id="node9" class="node">
<title>8</title>
<path fill="#e58139" stroke="#000000" d="M225.1872,-75.3003C225.1872,-75.3003 153.1094,-75.3003 153.1094,-75.3003 147.1094,-75.3003 141.1094,-69.3003 141.1094,-63.3003 141.1094,-63.3003 141.1094,-11.8997 141.1094,-11.8997 141.1094,-5.8997 147.1094,.1003 153.1094,.1003 153.1094,.1003 225.1872,.1003 225.1872,.1003 231.1872,.1003 237.1872,-5.8997 237.1872,-11.8997 237.1872,-11.8997 237.1872,-63.3003 237.1872,-63.3003 237.1872,-69.3003 231.1872,-75.3003 225.1872,-75.3003"/>
<text text-anchor="start" x="160.5533" y="-58.6" font-family="Helvetica,sans-Serif" font-size="14.00" fill="#000000">gini = 0.0</text>
<text text-anchor="start" x="151.2216" y="-41.8" font-family="Helvetica,sans-Serif" font-size="14.00" fill="#000000">samples = 3</text>
<text text-anchor="start" x="148.8794" y="-25" font-family="Helvetica,sans-Serif" font-size="14.00" fill="#000000">value = [3, 0]</text>
<text text-anchor="start" x="150.8366" y="-8.2" font-family="Helvetica,sans-Serif" font-size="14.00" fill="#000000">class = Died</text>
</g>
<!-- 6&#45;&gt;8 -->
<g id="edge8" class="edge">
<title>6-&gt;8</title>
<path fill="none" stroke="#000000" d="M189.1483,-110.9595C189.1483,-102.5477 189.1483,-93.7581 189.1483,-85.3049"/>
<polygon fill="#000000" stroke="#000000" points="192.6484,-85.2088 189.1483,-75.2088 185.6484,-85.2089 192.6484,-85.2088"/>
</g>
<!-- 10 -->
<g id="node11" class="node">
<title>10</title>
<path fill="#f4c7a8" stroke="#000000" d="M482.2513,-331.2C482.2513,-331.2 394.0453,-331.2 394.0453,-331.2 388.0453,-331.2 382.0453,-325.2 382.0453,-319.2 382.0453,-319.2 382.0453,-251.2 382.0453,-251.2 382.0453,-245.2 388.0453,-239.2 394.0453,-239.2 394.0453,-239.2 482.2513,-239.2 482.2513,-239.2 488.2513,-239.2 494.2513,-245.2 494.2513,-251.2 494.2513,-251.2 494.2513,-319.2 494.2513,-319.2 494.2513,-325.2 488.2513,-331.2 482.2513,-331.2"/>
<text text-anchor="start" x="393.4078" y="-314.6" font-family="Helvetica,sans-Serif" font-size="14.00" fill="#000000">Fare ≤ 26.144</text>
<text text-anchor="start" x="405.662" y="-297.8" font-family="Helvetica,sans-Serif" font-size="14.00" fill="#000000">gini = 0.46</text>
<text text-anchor="start" x="392.439" y="-281" font-family="Helvetica,sans-Serif" font-size="14.00" fill="#000000">samples = 120</text>
<text text-anchor="start" x="390.0968" y="-264.2" font-family="Helvetica,sans-Serif" font-size="14.00" fill="#000000">value = [77, 43]</text>
<text text-anchor="start" x="399.8366" y="-247.4" font-family="Helvetica,sans-Serif" font-size="14.00" fill="#000000">class = Died</text>
</g>
<!-- 9&#45;&gt;10 -->
<g id="edge10" class="edge">
<title>9-&gt;10</title>
<path fill="none" stroke="#000000" d="M480.9598,-366.9891C476.453,-358.3791 471.702,-349.3026 467.07,-340.4535"/>
<polygon fill="#000000" stroke="#000000" points="470.0398,-338.5796 462.3013,-331.3431 463.838,-341.8259 470.0398,-338.5796"/>
</g>
<!-- 15 -->
<g id="node16" class="node">
<title>15</title>
<path fill="#e89153" stroke="#000000" d="M676.034,-331.2C676.034,-331.2 580.2626,-331.2 580.2626,-331.2 574.2626,-331.2 568.2626,-325.2 568.2626,-319.2 568.2626,-319.2 568.2626,-251.2 568.2626,-251.2 568.2626,-245.2 574.2626,-239.2 580.2626,-239.2 580.2626,-239.2 676.034,-239.2 676.034,-239.2 682.034,-239.2 688.034,-245.2 688.034,-251.2 688.034,-251.2 688.034,-319.2 688.034,-319.2 688.034,-325.2 682.034,-331.2 676.034,-331.2"/>
<text text-anchor="start" x="583.4078" y="-314.6" font-family="Helvetica,sans-Serif" font-size="14.00" fill="#000000">Fare ≤ 51.698</text>
<text text-anchor="start" x="591.7707" y="-297.8" font-family="Helvetica,sans-Serif" font-size="14.00" fill="#000000">gini = 0.204</text>
<text text-anchor="start" x="582.439" y="-281" font-family="Helvetica,sans-Serif" font-size="14.00" fill="#000000">samples = 433</text>
<text text-anchor="start" x="576.2055" y="-264.2" font-family="Helvetica,sans-Serif" font-size="14.00" fill="#000000">value = [383, 50]</text>
<text text-anchor="start" x="589.8366" y="-247.4" font-family="Helvetica,sans-Serif" font-size="14.00" fill="#000000">class = Died</text>
</g>
<!-- 9&#45;&gt;15 -->
<g id="edge15" class="edge">
<title>9-&gt;15</title>
<path fill="none" stroke="#000000" d="M549.5541,-366.9891C558.3503,-357.8354 567.6532,-348.1543 576.6616,-338.7797"/>
<polygon fill="#000000" stroke="#000000" points="579.4025,-340.9787 583.8077,-331.3431 574.3551,-336.1285 579.4025,-340.9787"/>
</g>
<!-- 11 -->
<g id="node12" class="node">
<title>11</title>
<path fill="#e58139" stroke="#000000" d="M352.4692,-194.9003C352.4692,-194.9003 271.8274,-194.9003 271.8274,-194.9003 265.8274,-194.9003 259.8274,-188.9003 259.8274,-182.9003 259.8274,-182.9003 259.8274,-131.4997 259.8274,-131.4997 259.8274,-125.4997 265.8274,-119.4997 271.8274,-119.4997 271.8274,-119.4997 352.4692,-119.4997 352.4692,-119.4997 358.4692,-119.4997 364.4692,-125.4997 364.4692,-131.4997 364.4692,-131.4997 364.4692,-182.9003 364.4692,-182.9003 364.4692,-188.9003 358.4692,-194.9003 352.4692,-194.9003"/>
<text text-anchor="start" x="283.5533" y="-178.2" font-family="Helvetica,sans-Serif" font-size="14.00" fill="#000000">gini = 0.0</text>
<text text-anchor="start" x="270.3303" y="-161.4" font-family="Helvetica,sans-Serif" font-size="14.00" fill="#000000">samples = 10</text>
<text text-anchor="start" x="267.9881" y="-144.6" font-family="Helvetica,sans-Serif" font-size="14.00" fill="#000000">value = [10, 0]</text>
<text text-anchor="start" x="273.8366" y="-127.8" font-family="Helvetica,sans-Serif" font-size="14.00" fill="#000000">class = Died</text>
</g>
<!-- 10&#45;&gt;11 -->
<g id="edge11" class="edge">
<title>10-&gt;11</title>
<path fill="none" stroke="#000000" d="M392.6594,-238.9891C380.8677,-227.0101 368.1868,-214.128 356.4566,-202.2116"/>
<polygon fill="#000000" stroke="#000000" points="358.8017,-199.6047 349.2922,-194.9335 353.8131,-204.5154 358.8017,-199.6047"/>
</g>
<!-- 12 -->
<g id="node13" class="node">
<title>12</title>
<path fill="#f6d2b8" stroke="#000000" d="M482.2513,-203.2C482.2513,-203.2 394.0453,-203.2 394.0453,-203.2 388.0453,-203.2 382.0453,-197.2 382.0453,-191.2 382.0453,-191.2 382.0453,-123.2 382.0453,-123.2 382.0453,-117.2 388.0453,-111.2 394.0453,-111.2 394.0453,-111.2 482.2513,-111.2 482.2513,-111.2 488.2513,-111.2 494.2513,-117.2 494.2513,-123.2 494.2513,-123.2 494.2513,-191.2 494.2513,-191.2 494.2513,-197.2 488.2513,-203.2 482.2513,-203.2"/>
<text text-anchor="start" x="403.1287" y="-186.6" font-family="Helvetica,sans-Serif" font-size="14.00" fill="#000000">Age ≤ 53.0</text>
<text text-anchor="start" x="401.7707" y="-169.8" font-family="Helvetica,sans-Serif" font-size="14.00" fill="#000000">gini = 0.476</text>
<text text-anchor="start" x="392.439" y="-153" font-family="Helvetica,sans-Serif" font-size="14.00" fill="#000000">samples = 110</text>
<text text-anchor="start" x="390.0968" y="-136.2" font-family="Helvetica,sans-Serif" font-size="14.00" fill="#000000">value = [67, 43]</text>
<text text-anchor="start" x="399.8366" y="-119.4" font-family="Helvetica,sans-Serif" font-size="14.00" fill="#000000">class = Died</text>
</g>
<!-- 10&#45;&gt;12 -->
<g id="edge12" class="edge">
<title>10-&gt;12</title>
<path fill="none" stroke="#000000" d="M438.1483,-238.9891C438.1483,-230.7417 438.1483,-222.0661 438.1483,-213.5724"/>
<polygon fill="#000000" stroke="#000000" points="441.6484,-213.3431 438.1483,-203.3431 434.6484,-213.3431 441.6484,-213.3431"/>
</g>
<!-- 13 -->
<g id="node14" class="node">
<title>13</title>
<path fill="#fae8db" stroke="#000000" d="M355.2513,-75.3003C355.2513,-75.3003 267.0453,-75.3003 267.0453,-75.3003 261.0453,-75.3003 255.0453,-69.3003 255.0453,-63.3003 255.0453,-63.3003 255.0453,-11.8997 255.0453,-11.8997 255.0453,-5.8997 261.0453,.1003 267.0453,.1003 267.0453,.1003 355.2513,.1003 355.2513,.1003 361.2513,.1003 367.2513,-5.8997 367.2513,-11.8997 367.2513,-11.8997 367.2513,-63.3003 367.2513,-63.3003 367.2513,-69.3003 361.2513,-75.3003 355.2513,-75.3003"/>
<text text-anchor="start" x="274.7707" y="-58.6" font-family="Helvetica,sans-Serif" font-size="14.00" fill="#000000">gini = 0.495</text>
<text text-anchor="start" x="269.3303" y="-41.8" font-family="Helvetica,sans-Serif" font-size="14.00" fill="#000000">samples = 89</text>
<text text-anchor="start" x="263.0968" y="-25" font-family="Helvetica,sans-Serif" font-size="14.00" fill="#000000">value = [49, 40]</text>
<text text-anchor="start" x="272.8366" y="-8.2" font-family="Helvetica,sans-Serif" font-size="14.00" fill="#000000">class = Died</text>
</g>
<!-- 12&#45;&gt;13 -->
<g id="edge13" class="edge">
<title>12-&gt;13</title>
<path fill="none" stroke="#000000" d="M389.0468,-110.9595C379.0348,-101.5309 368.5187,-91.6276 358.5668,-82.2555"/>
<polygon fill="#000000" stroke="#000000" points="360.7636,-79.5166 351.0841,-75.2088 355.9646,-84.6126 360.7636,-79.5166"/>
</g>
<!-- 14 -->
<g id="node15" class="node">
<title>14</title>
<path fill="#e9965a" stroke="#000000" d="M477.4692,-75.3003C477.4692,-75.3003 396.8274,-75.3003 396.8274,-75.3003 390.8274,-75.3003 384.8274,-69.3003 384.8274,-63.3003 384.8274,-63.3003 384.8274,-11.8997 384.8274,-11.8997 384.8274,-5.8997 390.8274,.1003 396.8274,.1003 396.8274,.1003 477.4692,.1003 477.4692,.1003 483.4692,.1003 489.4692,-5.8997 489.4692,-11.8997 489.4692,-11.8997 489.4692,-63.3003 489.4692,-63.3003 489.4692,-69.3003 483.4692,-75.3003 477.4692,-75.3003"/>
<text text-anchor="start" x="400.7707" y="-58.6" font-family="Helvetica,sans-Serif" font-size="14.00" fill="#000000">gini = 0.245</text>
<text text-anchor="start" x="395.3303" y="-41.8" font-family="Helvetica,sans-Serif" font-size="14.00" fill="#000000">samples = 21</text>
<text text-anchor="start" x="392.9881" y="-25" font-family="Helvetica,sans-Serif" font-size="14.00" fill="#000000">value = [18, 3]</text>
<text text-anchor="start" x="398.8366" y="-8.2" font-family="Helvetica,sans-Serif" font-size="14.00" fill="#000000">class = Died</text>
</g>
<!-- 12&#45;&gt;14 -->
<g id="edge14" class="edge">
<title>12-&gt;14</title>
<path fill="none" stroke="#000000" d="M437.7617,-110.9595C437.6913,-102.5477 437.6178,-93.7581 437.5472,-85.3049"/>
<polygon fill="#000000" stroke="#000000" points="441.0463,-85.1792 437.4628,-75.2088 434.0466,-85.2378 441.0463,-85.1792"/>
</g>
<!-- 16 -->
<g id="node17" class="node">
<title>16</title>
<path fill="#e89051" stroke="#000000" d="M676.034,-203.2C676.034,-203.2 580.2626,-203.2 580.2626,-203.2 574.2626,-203.2 568.2626,-197.2 568.2626,-191.2 568.2626,-191.2 568.2626,-123.2 568.2626,-123.2 568.2626,-117.2 574.2626,-111.2 580.2626,-111.2 580.2626,-111.2 676.034,-111.2 676.034,-111.2 682.034,-111.2 688.034,-117.2 688.034,-123.2 688.034,-123.2 688.034,-191.2 688.034,-191.2 688.034,-197.2 682.034,-203.2 676.034,-203.2"/>
<text text-anchor="start" x="593.1287" y="-186.6" font-family="Helvetica,sans-Serif" font-size="14.00" fill="#000000">Age ≤ 13.0</text>
<text text-anchor="start" x="591.7707" y="-169.8" font-family="Helvetica,sans-Serif" font-size="14.00" fill="#000000">gini = 0.193</text>
<text text-anchor="start" x="582.439" y="-153" font-family="Helvetica,sans-Serif" font-size="14.00" fill="#000000">samples = 417</text>
<text text-anchor="start" x="576.2055" y="-136.2" font-family="Helvetica,sans-Serif" font-size="14.00" fill="#000000">value = [372, 45]</text>
<text text-anchor="start" x="589.8366" y="-119.4" font-family="Helvetica,sans-Serif" font-size="14.00" fill="#000000">class = Died</text>
</g>
<!-- 15&#45;&gt;16 -->
<g id="edge16" class="edge">
<title>15-&gt;16</title>
<path fill="none" stroke="#000000" d="M628.1483,-238.9891C628.1483,-230.7417 628.1483,-222.0661 628.1483,-213.5724"/>
<polygon fill="#000000" stroke="#000000" points="631.6484,-213.3431 628.1483,-203.3431 624.6484,-213.3431 631.6484,-213.3431"/>
</g>
<!-- 19 -->
<g id="node20" class="node">
<title>19</title>
<path fill="#f1ba93" stroke="#000000" d="M860.1304,-203.2C860.1304,-203.2 778.1662,-203.2 778.1662,-203.2 772.1662,-203.2 766.1662,-197.2 766.1662,-191.2 766.1662,-191.2 766.1662,-123.2 766.1662,-123.2 766.1662,-117.2 772.1662,-111.2 778.1662,-111.2 778.1662,-111.2 860.1304,-111.2 860.1304,-111.2 866.1304,-111.2 872.1304,-117.2 872.1304,-123.2 872.1304,-123.2 872.1304,-191.2 872.1304,-191.2 872.1304,-197.2 866.1304,-203.2 860.1304,-203.2"/>
<text text-anchor="start" x="774.4078" y="-186.6" font-family="Helvetica,sans-Serif" font-size="14.00" fill="#000000">Fare ≤ 63.023</text>
<text text-anchor="start" x="786.662" y="-169.8" font-family="Helvetica,sans-Serif" font-size="14.00" fill="#000000">gini = 0.43</text>
<text text-anchor="start" x="777.3303" y="-153" font-family="Helvetica,sans-Serif" font-size="14.00" fill="#000000">samples = 16</text>
<text text-anchor="start" x="774.9881" y="-136.2" font-family="Helvetica,sans-Serif" font-size="14.00" fill="#000000">value = [11, 5]</text>
<text text-anchor="start" x="780.8366" y="-119.4" font-family="Helvetica,sans-Serif" font-size="14.00" fill="#000000">class = Died</text>
</g>
<!-- 15&#45;&gt;19 -->
<g id="edge19" class="edge">
<title>15-&gt;19</title>
<path fill="none" stroke="#000000" d="M688.0578,-245.0512C710.2729,-230.1636 735.4864,-213.2666 757.8257,-198.2958"/>
<polygon fill="#000000" stroke="#000000" points="759.8758,-201.1352 766.2344,-192.6606 755.9788,-195.3202 759.8758,-201.1352"/>
</g>
<!-- 17 -->
<g id="node18" class="node">
<title>17</title>
<path fill="#f2c09c" stroke="#000000" d="M594.785,-75.3003C594.785,-75.3003 519.5116,-75.3003 519.5116,-75.3003 513.5116,-75.3003 507.5116,-69.3003 507.5116,-63.3003 507.5116,-63.3003 507.5116,-11.8997 507.5116,-11.8997 507.5116,-5.8997 513.5116,.1003 519.5116,.1003 519.5116,.1003 594.785,.1003 594.785,.1003 600.785,.1003 606.785,-5.8997 606.785,-11.8997 606.785,-11.8997 606.785,-63.3003 606.785,-63.3003 606.785,-69.3003 600.785,-75.3003 594.785,-75.3003"/>
<text text-anchor="start" x="520.7707" y="-58.6" font-family="Helvetica,sans-Serif" font-size="14.00" fill="#000000">gini = 0.444</text>
<text text-anchor="start" x="515.3303" y="-41.8" font-family="Helvetica,sans-Serif" font-size="14.00" fill="#000000">samples = 12</text>
<text text-anchor="start" x="516.8794" y="-25" font-family="Helvetica,sans-Serif" font-size="14.00" fill="#000000">value = [8, 4]</text>
<text text-anchor="start" x="518.8366" y="-8.2" font-family="Helvetica,sans-Serif" font-size="14.00" fill="#000000">class = Died</text>
</g>
<!-- 16&#45;&gt;17 -->
<g id="edge17" class="edge">
<title>16-&gt;17</title>
<path fill="none" stroke="#000000" d="M600.6978,-110.9595C595.4298,-102.0855 589.9122,-92.791 584.6428,-83.9147"/>
<polygon fill="#000000" stroke="#000000" points="587.589,-82.0211 579.4746,-75.2088 581.5697,-85.5945 587.589,-82.0211"/>
</g>
<!-- 18 -->
<g id="node19" class="node">
<title>18</title>
<path fill="#e88f4f" stroke="#000000" d="M733.034,-75.3003C733.034,-75.3003 637.2626,-75.3003 637.2626,-75.3003 631.2626,-75.3003 625.2626,-69.3003 625.2626,-63.3003 625.2626,-63.3003 625.2626,-11.8997 625.2626,-11.8997 625.2626,-5.8997 631.2626,.1003 637.2626,.1003 637.2626,.1003 733.034,.1003 733.034,.1003 739.034,.1003 745.034,-5.8997 745.034,-11.8997 745.034,-11.8997 745.034,-63.3003 745.034,-63.3003 745.034,-69.3003 739.034,-75.3003 733.034,-75.3003"/>
<text text-anchor="start" x="648.7707" y="-58.6" font-family="Helvetica,sans-Serif" font-size="14.00" fill="#000000">gini = 0.182</text>
<text text-anchor="start" x="639.439" y="-41.8" font-family="Helvetica,sans-Serif" font-size="14.00" fill="#000000">samples = 405</text>
<text text-anchor="start" x="633.2055" y="-25" font-family="Helvetica,sans-Serif" font-size="14.00" fill="#000000">value = [364, 41]</text>
<text text-anchor="start" x="646.8366" y="-8.2" font-family="Helvetica,sans-Serif" font-size="14.00" fill="#000000">class = Died</text>
</g>
<!-- 16&#45;&gt;18 -->
<g id="edge18" class="edge">
<title>16-&gt;18</title>
<path fill="none" stroke="#000000" d="M650.186,-110.9595C654.3271,-102.2704 658.6604,-93.1781 662.8106,-84.47"/>
<polygon fill="#000000" stroke="#000000" points="666.0816,-85.7419 667.2244,-75.2088 659.7625,-82.7302 666.0816,-85.7419"/>
</g>
<!-- 20 -->
<g id="node21" class="node">
<title>20</title>
<path fill="#88c4ef" stroke="#000000" d="M869.4453,-75.3003C869.4453,-75.3003 774.8513,-75.3003 774.8513,-75.3003 768.8513,-75.3003 762.8513,-69.3003 762.8513,-63.3003 762.8513,-63.3003 762.8513,-11.8997 762.8513,-11.8997 762.8513,-5.8997 768.8513,.1003 774.8513,.1003 774.8513,.1003 869.4453,.1003 869.4453,.1003 875.4453,.1003 881.4453,-5.8997 881.4453,-11.8997 881.4453,-11.8997 881.4453,-63.3003 881.4453,-63.3003 881.4453,-69.3003 875.4453,-75.3003 869.4453,-75.3003"/>
<text text-anchor="start" x="785.7707" y="-58.6" font-family="Helvetica,sans-Serif" font-size="14.00" fill="#000000">gini = 0.408</text>
<text text-anchor="start" x="784.2216" y="-41.8" font-family="Helvetica,sans-Serif" font-size="14.00" fill="#000000">samples = 7</text>
<text text-anchor="start" x="781.8794" y="-25" font-family="Helvetica,sans-Serif" font-size="14.00" fill="#000000">value = [2, 5]</text>
<text text-anchor="start" x="771" y="-8.2" font-family="Helvetica,sans-Serif" font-size="14.00" fill="#000000">class = Survived</text>
</g>
<!-- 19&#45;&gt;20 -->
<g id="edge20" class="edge">
<title>19-&gt;20</title>
<path fill="none" stroke="#000000" d="M820.3082,-110.9595C820.5192,-102.5477 820.7397,-93.7581 820.9517,-85.3049"/>
<polygon fill="#000000" stroke="#000000" points="824.453,-85.2935 821.2049,-75.2088 817.4552,-85.1179 824.453,-85.2935"/>
</g>
<!-- 21 -->
<g id="node22" class="node">
<title>21</title>
<path fill="#e58139" stroke="#000000" d="M983.1872,-75.3003C983.1872,-75.3003 911.1094,-75.3003 911.1094,-75.3003 905.1094,-75.3003 899.1094,-69.3003 899.1094,-63.3003 899.1094,-63.3003 899.1094,-11.8997 899.1094,-11.8997 899.1094,-5.8997 905.1094,.1003 911.1094,.1003 911.1094,.1003 983.1872,.1003 983.1872,.1003 989.1872,.1003 995.1872,-5.8997 995.1872,-11.8997 995.1872,-11.8997 995.1872,-63.3003 995.1872,-63.3003 995.1872,-69.3003 989.1872,-75.3003 983.1872,-75.3003"/>
<text text-anchor="start" x="918.5533" y="-58.6" font-family="Helvetica,sans-Serif" font-size="14.00" fill="#000000">gini = 0.0</text>
<text text-anchor="start" x="909.2216" y="-41.8" font-family="Helvetica,sans-Serif" font-size="14.00" fill="#000000">samples = 9</text>
<text text-anchor="start" x="906.8794" y="-25" font-family="Helvetica,sans-Serif" font-size="14.00" fill="#000000">value = [9, 0]</text>
<text text-anchor="start" x="908.8366" y="-8.2" font-family="Helvetica,sans-Serif" font-size="14.00" fill="#000000">class = Died</text>
</g>
<!-- 19&#45;&gt;21 -->
<g id="edge21" class="edge">
<title>19-&gt;21</title>
<path fill="none" stroke="#000000" d="M868.6364,-110.9595C878.7273,-101.5309 889.3262,-91.6276 899.3565,-82.2555"/>
<polygon fill="#000000" stroke="#000000" points="901.9808,-84.5935 906.8981,-75.2088 897.2017,-79.4787 901.9808,-84.5935"/>
</g>
<!-- 23 -->
<g id="node24" class="node">
<title>23</title>
<path fill="#44a2e6" stroke="#000000" d="M1183.4453,-459.2C1183.4453,-459.2 1088.8513,-459.2 1088.8513,-459.2 1082.8513,-459.2 1076.8513,-453.2 1076.8513,-447.2 1076.8513,-447.2 1076.8513,-379.2 1076.8513,-379.2 1076.8513,-373.2 1082.8513,-367.2 1088.8513,-367.2 1088.8513,-367.2 1183.4453,-367.2 1183.4453,-367.2 1189.4453,-367.2 1195.4453,-373.2 1195.4453,-379.2 1195.4453,-379.2 1195.4453,-447.2 1195.4453,-447.2 1195.4453,-453.2 1189.4453,-459.2 1183.4453,-459.2"/>
<text text-anchor="start" x="1105.02" y="-442.6" font-family="Helvetica,sans-Serif" font-size="14.00" fill="#000000">Age ≤ 2.5</text>
<text text-anchor="start" x="1107.5533" y="-425.8" font-family="Helvetica,sans-Serif" font-size="14.00" fill="#000000">gini = 0.1</text>
<text text-anchor="start" x="1090.439" y="-409" font-family="Helvetica,sans-Serif" font-size="14.00" fill="#000000">samples = 170</text>
<text text-anchor="start" x="1088.0968" y="-392.2" font-family="Helvetica,sans-Serif" font-size="14.00" fill="#000000">value = [9, 161]</text>
<text text-anchor="start" x="1085" y="-375.4" font-family="Helvetica,sans-Serif" font-size="14.00" fill="#000000">class = Survived</text>
</g>
<!-- 22&#45;&gt;23 -->
<g id="edge23" class="edge">
<title>22-&gt;23</title>
<path fill="none" stroke="#000000" d="M1136.1483,-494.9891C1136.1483,-486.7417 1136.1483,-478.0661 1136.1483,-469.5724"/>
<polygon fill="#000000" stroke="#000000" points="1139.6484,-469.3431 1136.1483,-459.3431 1132.6484,-469.3431 1139.6484,-469.3431"/>
</g>
<!-- 34 -->
<g id="node35" class="node">
<title>34</title>
<path fill="#ffffff" stroke="#000000" d="M1836.2513,-459.2C1836.2513,-459.2 1748.0453,-459.2 1748.0453,-459.2 1742.0453,-459.2 1736.0453,-453.2 1736.0453,-447.2 1736.0453,-447.2 1736.0453,-379.2 1736.0453,-379.2 1736.0453,-373.2 1742.0453,-367.2 1748.0453,-367.2 1748.0453,-367.2 1836.2513,-367.2 1836.2513,-367.2 1842.2513,-367.2 1848.2513,-373.2 1848.2513,-379.2 1848.2513,-379.2 1848.2513,-447.2 1848.2513,-447.2 1848.2513,-453.2 1842.2513,-459.2 1836.2513,-459.2"/>
<text text-anchor="start" x="1751.2991" y="-442.6" font-family="Helvetica,sans-Serif" font-size="14.00" fill="#000000">Fare ≤ 23.35</text>
<text text-anchor="start" x="1763.5533" y="-425.8" font-family="Helvetica,sans-Serif" font-size="14.00" fill="#000000">gini = 0.5</text>
<text text-anchor="start" x="1746.439" y="-409" font-family="Helvetica,sans-Serif" font-size="14.00" fill="#000000">samples = 144</text>
<text text-anchor="start" x="1744.0968" y="-392.2" font-family="Helvetica,sans-Serif" font-size="14.00" fill="#000000">value = [72, 72]</text>
<text text-anchor="start" x="1753.8366" y="-375.4" font-family="Helvetica,sans-Serif" font-size="14.00" fill="#000000">class = Died</text>
</g>
<!-- 22&#45;&gt;34 -->
<g id="edge34" class="edge">
<title>22-&gt;34</title>
<path fill="none" stroke="#000000" d="M1196.103,-529.5015C1318.8217,-505.5564 1597.8322,-451.1153 1725.787,-426.1485"/>
<polygon fill="#000000" stroke="#000000" points="1726.6995,-429.5366 1735.8441,-424.1862 1725.3589,-422.6661 1726.6995,-429.5366"/>
</g>
<!-- 24 -->
<g id="node25" class="node">
<title>24</title>
<path fill="#ffffff" stroke="#000000" d="M1110.1872,-331.2C1110.1872,-331.2 1038.1094,-331.2 1038.1094,-331.2 1032.1094,-331.2 1026.1094,-325.2 1026.1094,-319.2 1026.1094,-319.2 1026.1094,-251.2 1026.1094,-251.2 1026.1094,-245.2 1032.1094,-239.2 1038.1094,-239.2 1038.1094,-239.2 1110.1872,-239.2 1110.1872,-239.2 1116.1872,-239.2 1122.1872,-245.2 1122.1872,-251.2 1122.1872,-251.2 1122.1872,-319.2 1122.1872,-319.2 1122.1872,-325.2 1116.1872,-331.2 1110.1872,-331.2"/>
<text text-anchor="start" x="1037.1897" y="-314.6" font-family="Helvetica,sans-Serif" font-size="14.00" fill="#000000">Parch ≤ 1.5</text>
<text text-anchor="start" x="1045.5533" y="-297.8" font-family="Helvetica,sans-Serif" font-size="14.00" fill="#000000">gini = 0.5</text>
<text text-anchor="start" x="1036.2216" y="-281" font-family="Helvetica,sans-Serif" font-size="14.00" fill="#000000">samples = 2</text>
<text text-anchor="start" x="1033.8794" y="-264.2" font-family="Helvetica,sans-Serif" font-size="14.00" fill="#000000">value = [1, 1]</text>
<text text-anchor="start" x="1035.8366" y="-247.4" font-family="Helvetica,sans-Serif" font-size="14.00" fill="#000000">class = Died</text>
</g>
<!-- 23&#45;&gt;24 -->
<g id="edge24" class="edge">
<title>23-&gt;24</title>
<path fill="none" stroke="#000000" d="M1113.7649,-366.9891C1109.5944,-358.3791 1105.198,-349.3026 1100.9117,-340.4535"/>
<polygon fill="#000000" stroke="#000000" points="1104.0081,-338.8172 1096.4989,-331.3431 1097.7083,-341.8687 1104.0081,-338.8172"/>
</g>
<!-- 27 -->
<g id="node28" class="node">
<title>27</title>
<path fill="#43a2e6" stroke="#000000" d="M1246.4453,-331.2C1246.4453,-331.2 1151.8513,-331.2 1151.8513,-331.2 1145.8513,-331.2 1139.8513,-325.2 1139.8513,-319.2 1139.8513,-319.2 1139.8513,-251.2 1139.8513,-251.2 1139.8513,-245.2 1145.8513,-239.2 1151.8513,-239.2 1151.8513,-239.2 1246.4453,-239.2 1246.4453,-239.2 1252.4453,-239.2 1258.4453,-245.2 1258.4453,-251.2 1258.4453,-251.2 1258.4453,-319.2 1258.4453,-319.2 1258.4453,-325.2 1252.4453,-331.2 1246.4453,-331.2"/>
<text text-anchor="start" x="1154.4078" y="-314.6" font-family="Helvetica,sans-Serif" font-size="14.00" fill="#000000">Fare ≤ 28.856</text>
<text text-anchor="start" x="1162.7707" y="-297.8" font-family="Helvetica,sans-Serif" font-size="14.00" fill="#000000">gini = 0.091</text>
<text text-anchor="start" x="1153.439" y="-281" font-family="Helvetica,sans-Serif" font-size="14.00" fill="#000000">samples = 168</text>
<text text-anchor="start" x="1151.0968" y="-264.2" font-family="Helvetica,sans-Serif" font-size="14.00" fill="#000000">value = [8, 160]</text>
<text text-anchor="start" x="1148" y="-247.4" font-family="Helvetica,sans-Serif" font-size="14.00" fill="#000000">class = Survived</text>
</g>
<!-- 23&#45;&gt;27 -->
<g id="edge27" class="edge">
<title>23-&gt;27</title>
<path fill="none" stroke="#000000" d="M1158.8927,-366.9891C1163.1304,-358.3791 1167.5978,-349.3026 1171.9532,-340.4535"/>
<polygon fill="#000000" stroke="#000000" points="1175.1615,-341.8609 1176.4372,-331.3431 1168.881,-338.7696 1175.1615,-341.8609"/>
</g>
<!-- 25 -->
<g id="node26" class="node">
<title>25</title>
<path fill="#399de5" stroke="#000000" d="M996.4453,-194.9003C996.4453,-194.9003 901.8513,-194.9003 901.8513,-194.9003 895.8513,-194.9003 889.8513,-188.9003 889.8513,-182.9003 889.8513,-182.9003 889.8513,-131.4997 889.8513,-131.4997 889.8513,-125.4997 895.8513,-119.4997 901.8513,-119.4997 901.8513,-119.4997 996.4453,-119.4997 996.4453,-119.4997 1002.4453,-119.4997 1008.4453,-125.4997 1008.4453,-131.4997 1008.4453,-131.4997 1008.4453,-182.9003 1008.4453,-182.9003 1008.4453,-188.9003 1002.4453,-194.9003 996.4453,-194.9003"/>
<text text-anchor="start" x="920.5533" y="-178.2" font-family="Helvetica,sans-Serif" font-size="14.00" fill="#000000">gini = 0.0</text>
<text text-anchor="start" x="911.2216" y="-161.4" font-family="Helvetica,sans-Serif" font-size="14.00" fill="#000000">samples = 1</text>
<text text-anchor="start" x="908.8794" y="-144.6" font-family="Helvetica,sans-Serif" font-size="14.00" fill="#000000">value = [0, 1]</text>
<text text-anchor="start" x="898" y="-127.8" font-family="Helvetica,sans-Serif" font-size="14.00" fill="#000000">class = Survived</text>
</g>
<!-- 24&#45;&gt;25 -->
<g id="edge25" class="edge">
<title>24-&gt;25</title>
<path fill="none" stroke="#000000" d="M1029.0204,-238.9891C1017.3223,-227.0101 1004.7421,-214.128 993.105,-202.2116"/>
<polygon fill="#000000" stroke="#000000" points="995.4882,-199.6426 985.9974,-194.9335 990.4801,-204.5333 995.4882,-199.6426"/>
</g>
<!-- 26 -->
<g id="node27" class="node">
<title>26</title>
<path fill="#e58139" stroke="#000000" d="M1110.1872,-194.9003C1110.1872,-194.9003 1038.1094,-194.9003 1038.1094,-194.9003 1032.1094,-194.9003 1026.1094,-188.9003 1026.1094,-182.9003 1026.1094,-182.9003 1026.1094,-131.4997 1026.1094,-131.4997 1026.1094,-125.4997 1032.1094,-119.4997 1038.1094,-119.4997 1038.1094,-119.4997 1110.1872,-119.4997 1110.1872,-119.4997 1116.1872,-119.4997 1122.1872,-125.4997 1122.1872,-131.4997 1122.1872,-131.4997 1122.1872,-182.9003 1122.1872,-182.9003 1122.1872,-188.9003 1116.1872,-194.9003 1110.1872,-194.9003"/>
<text text-anchor="start" x="1045.5533" y="-178.2" font-family="Helvetica,sans-Serif" font-size="14.00" fill="#000000">gini = 0.0</text>
<text text-anchor="start" x="1036.2216" y="-161.4" font-family="Helvetica,sans-Serif" font-size="14.00" fill="#000000">samples = 1</text>
<text text-anchor="start" x="1033.8794" y="-144.6" font-family="Helvetica,sans-Serif" font-size="14.00" fill="#000000">value = [1, 0]</text>
<text text-anchor="start" x="1035.8366" y="-127.8" font-family="Helvetica,sans-Serif" font-size="14.00" fill="#000000">class = Died</text>
</g>
<!-- 24&#45;&gt;26 -->
<g id="edge26" class="edge">
<title>24-&gt;26</title>
<path fill="none" stroke="#000000" d="M1074.1483,-238.9891C1074.1483,-228.0272 1074.1483,-216.309 1074.1483,-205.2667"/>
<polygon fill="#000000" stroke="#000000" points="1077.6484,-204.9335 1074.1483,-194.9335 1070.6484,-204.9335 1077.6484,-204.9335"/>
</g>
<!-- 28 -->
<g id="node29" class="node">
<title>28</title>
<path fill="#4fa8e8" stroke="#000000" d="M1246.4453,-203.2C1246.4453,-203.2 1151.8513,-203.2 1151.8513,-203.2 1145.8513,-203.2 1139.8513,-197.2 1139.8513,-191.2 1139.8513,-191.2 1139.8513,-123.2 1139.8513,-123.2 1139.8513,-117.2 1145.8513,-111.2 1151.8513,-111.2 1151.8513,-111.2 1246.4453,-111.2 1246.4453,-111.2 1252.4453,-111.2 1258.4453,-117.2 1258.4453,-123.2 1258.4453,-123.2 1258.4453,-191.2 1258.4453,-191.2 1258.4453,-197.2 1252.4453,-203.2 1246.4453,-203.2"/>
<text text-anchor="start" x="1154.4078" y="-186.6" font-family="Helvetica,sans-Serif" font-size="14.00" fill="#000000">Fare ≤ 28.231</text>
<text text-anchor="start" x="1162.7707" y="-169.8" font-family="Helvetica,sans-Serif" font-size="14.00" fill="#000000">gini = 0.182</text>
<text text-anchor="start" x="1157.3303" y="-153" font-family="Helvetica,sans-Serif" font-size="14.00" fill="#000000">samples = 69</text>
<text text-anchor="start" x="1154.9881" y="-136.2" font-family="Helvetica,sans-Serif" font-size="14.00" fill="#000000">value = [7, 62]</text>
<text text-anchor="start" x="1148" y="-119.4" font-family="Helvetica,sans-Serif" font-size="14.00" fill="#000000">class = Survived</text>
</g>
<!-- 27&#45;&gt;28 -->
<g id="edge28" class="edge">
<title>27-&gt;28</title>
<path fill="none" stroke="#000000" d="M1199.1483,-238.9891C1199.1483,-230.7417 1199.1483,-222.0661 1199.1483,-213.5724"/>
<polygon fill="#000000" stroke="#000000" points="1202.6484,-213.3431 1199.1483,-203.3431 1195.6484,-213.3431 1202.6484,-213.3431"/>
</g>
<!-- 31 -->
<g id="node32" class="node">
<title>31</title>
<path fill="#3b9ee5" stroke="#000000" d="M1382.4453,-203.2C1382.4453,-203.2 1287.8513,-203.2 1287.8513,-203.2 1281.8513,-203.2 1275.8513,-197.2 1275.8513,-191.2 1275.8513,-191.2 1275.8513,-123.2 1275.8513,-123.2 1275.8513,-117.2 1281.8513,-111.2 1287.8513,-111.2 1287.8513,-111.2 1382.4453,-111.2 1382.4453,-111.2 1388.4453,-111.2 1394.4453,-117.2 1394.4453,-123.2 1394.4453,-123.2 1394.4453,-191.2 1394.4453,-191.2 1394.4453,-197.2 1388.4453,-203.2 1382.4453,-203.2"/>
<text text-anchor="start" x="1298.1897" y="-186.6" font-family="Helvetica,sans-Serif" font-size="14.00" fill="#000000">Parch ≤ 1.5</text>
<text text-anchor="start" x="1302.662" y="-169.8" font-family="Helvetica,sans-Serif" font-size="14.00" fill="#000000">gini = 0.02</text>
<text text-anchor="start" x="1293.3303" y="-153" font-family="Helvetica,sans-Serif" font-size="14.00" fill="#000000">samples = 99</text>
<text text-anchor="start" x="1290.9881" y="-136.2" font-family="Helvetica,sans-Serif" font-size="14.00" fill="#000000">value = [1, 98]</text>
<text text-anchor="start" x="1284" y="-119.4" font-family="Helvetica,sans-Serif" font-size="14.00" fill="#000000">class = Survived</text>
</g>
<!-- 27&#45;&gt;31 -->
<g id="edge31" class="edge">
<title>27-&gt;31</title>
<path fill="none" stroke="#000000" d="M1248.2474,-238.9891C1258.1658,-229.6541 1268.667,-219.7706 1278.8112,-210.2231"/>
<polygon fill="#000000" stroke="#000000" points="1281.238,-212.7455 1286.1212,-203.3431 1276.4404,-207.6481 1281.238,-212.7455"/>
</g>
<!-- 29 -->
<g id="node30" class="node">
<title>29</title>
<path fill="#4ca6e8" stroke="#000000" d="M1121.4453,-75.3003C1121.4453,-75.3003 1026.8513,-75.3003 1026.8513,-75.3003 1020.8513,-75.3003 1014.8513,-69.3003 1014.8513,-63.3003 1014.8513,-63.3003 1014.8513,-11.8997 1014.8513,-11.8997 1014.8513,-5.8997 1020.8513,.1003 1026.8513,.1003 1026.8513,.1003 1121.4453,.1003 1121.4453,.1003 1127.4453,.1003 1133.4453,-5.8997 1133.4453,-11.8997 1133.4453,-11.8997 1133.4453,-63.3003 1133.4453,-63.3003 1133.4453,-69.3003 1127.4453,-75.3003 1121.4453,-75.3003"/>
<text text-anchor="start" x="1037.7707" y="-58.6" font-family="Helvetica,sans-Serif" font-size="14.00" fill="#000000">gini = 0.161</text>
<text text-anchor="start" x="1032.3303" y="-41.8" font-family="Helvetica,sans-Serif" font-size="14.00" fill="#000000">samples = 68</text>
<text text-anchor="start" x="1029.9881" y="-25" font-family="Helvetica,sans-Serif" font-size="14.00" fill="#000000">value = [6, 62]</text>
<text text-anchor="start" x="1023" y="-8.2" font-family="Helvetica,sans-Serif" font-size="14.00" fill="#000000">class = Survived</text>
</g>
<!-- 28&#45;&gt;29 -->
<g id="edge29" class="edge">
<title>28-&gt;29</title>
<path fill="none" stroke="#000000" d="M1150.82,-110.9595C1140.9657,-101.5309 1130.6152,-91.6276 1120.82,-82.2555"/>
<polygon fill="#000000" stroke="#000000" points="1123.1003,-79.5932 1113.4552,-75.2088 1118.261,-84.651 1123.1003,-79.5932"/>
</g>
<!-- 30 -->
<g id="node31" class="node">
<title>30</title>
<path fill="#e58139" stroke="#000000" d="M1235.1872,-75.3003C1235.1872,-75.3003 1163.1094,-75.3003 1163.1094,-75.3003 1157.1094,-75.3003 1151.1094,-69.3003 1151.1094,-63.3003 1151.1094,-63.3003 1151.1094,-11.8997 1151.1094,-11.8997 1151.1094,-5.8997 1157.1094,.1003 1163.1094,.1003 1163.1094,.1003 1235.1872,.1003 1235.1872,.1003 1241.1872,.1003 1247.1872,-5.8997 1247.1872,-11.8997 1247.1872,-11.8997 1247.1872,-63.3003 1247.1872,-63.3003 1247.1872,-69.3003 1241.1872,-75.3003 1235.1872,-75.3003"/>
<text text-anchor="start" x="1170.5533" y="-58.6" font-family="Helvetica,sans-Serif" font-size="14.00" fill="#000000">gini = 0.0</text>
<text text-anchor="start" x="1161.2216" y="-41.8" font-family="Helvetica,sans-Serif" font-size="14.00" fill="#000000">samples = 1</text>
<text text-anchor="start" x="1158.8794" y="-25" font-family="Helvetica,sans-Serif" font-size="14.00" fill="#000000">value = [1, 0]</text>
<text text-anchor="start" x="1160.8366" y="-8.2" font-family="Helvetica,sans-Serif" font-size="14.00" fill="#000000">class = Died</text>
</g>
<!-- 28&#45;&gt;30 -->
<g id="edge30" class="edge">
<title>28-&gt;30</title>
<path fill="none" stroke="#000000" d="M1199.1483,-110.9595C1199.1483,-102.5477 1199.1483,-93.7581 1199.1483,-85.3049"/>
<polygon fill="#000000" stroke="#000000" points="1202.6484,-85.2088 1199.1483,-75.2088 1195.6484,-85.2089 1202.6484,-85.2088"/>
</g>
<!-- 32 -->
<g id="node33" class="node">
<title>32</title>
<path fill="#399de5" stroke="#000000" d="M1371.4453,-75.3003C1371.4453,-75.3003 1276.8513,-75.3003 1276.8513,-75.3003 1270.8513,-75.3003 1264.8513,-69.3003 1264.8513,-63.3003 1264.8513,-63.3003 1264.8513,-11.8997 1264.8513,-11.8997 1264.8513,-5.8997 1270.8513,.1003 1276.8513,.1003 1276.8513,.1003 1371.4453,.1003 1371.4453,.1003 1377.4453,.1003 1383.4453,-5.8997 1383.4453,-11.8997 1383.4453,-11.8997 1383.4453,-63.3003 1383.4453,-63.3003 1383.4453,-69.3003 1377.4453,-75.3003 1371.4453,-75.3003"/>
<text text-anchor="start" x="1295.5533" y="-58.6" font-family="Helvetica,sans-Serif" font-size="14.00" fill="#000000">gini = 0.0</text>
<text text-anchor="start" x="1282.3303" y="-41.8" font-family="Helvetica,sans-Serif" font-size="14.00" fill="#000000">samples = 84</text>
<text text-anchor="start" x="1279.9881" y="-25" font-family="Helvetica,sans-Serif" font-size="14.00" fill="#000000">value = [0, 84]</text>
<text text-anchor="start" x="1273" y="-8.2" font-family="Helvetica,sans-Serif" font-size="14.00" fill="#000000">class = Survived</text>
</g>
<!-- 31&#45;&gt;32 -->
<g id="edge32" class="edge">
<title>31-&gt;32</title>
<path fill="none" stroke="#000000" d="M1330.8954,-110.9595C1330.1218,-102.5477 1329.3133,-93.7581 1328.5359,-85.3049"/>
<polygon fill="#000000" stroke="#000000" points="1332.0086,-84.8462 1327.6073,-75.2088 1325.038,-85.4874 1332.0086,-84.8462"/>
</g>
<!-- 33 -->
<g id="node34" class="node">
<title>33</title>
<path fill="#47a4e7" stroke="#000000" d="M1507.4453,-75.3003C1507.4453,-75.3003 1412.8513,-75.3003 1412.8513,-75.3003 1406.8513,-75.3003 1400.8513,-69.3003 1400.8513,-63.3003 1400.8513,-63.3003 1400.8513,-11.8997 1400.8513,-11.8997 1400.8513,-5.8997 1406.8513,.1003 1412.8513,.1003 1412.8513,.1003 1507.4453,.1003 1507.4453,.1003 1513.4453,.1003 1519.4453,-5.8997 1519.4453,-11.8997 1519.4453,-11.8997 1519.4453,-63.3003 1519.4453,-63.3003 1519.4453,-69.3003 1513.4453,-75.3003 1507.4453,-75.3003"/>
<text text-anchor="start" x="1423.7707" y="-58.6" font-family="Helvetica,sans-Serif" font-size="14.00" fill="#000000">gini = 0.124</text>
<text text-anchor="start" x="1418.3303" y="-41.8" font-family="Helvetica,sans-Serif" font-size="14.00" fill="#000000">samples = 15</text>
<text text-anchor="start" x="1415.9881" y="-25" font-family="Helvetica,sans-Serif" font-size="14.00" fill="#000000">value = [1, 14]</text>
<text text-anchor="start" x="1409" y="-8.2" font-family="Helvetica,sans-Serif" font-size="14.00" fill="#000000">class = Survived</text>
</g>
<!-- 31&#45;&gt;33 -->
<g id="edge33" class="edge">
<title>31-&gt;33</title>
<path fill="none" stroke="#000000" d="M1383.4766,-110.9595C1393.3309,-101.5309 1403.6814,-91.6276 1413.4766,-82.2555"/>
<polygon fill="#000000" stroke="#000000" points="1416.0356,-84.651 1420.8414,-75.2088 1411.1963,-79.5932 1416.0356,-84.651"/>
</g>
<!-- 35 -->
<g id="node36" class="node">
<title>35</title>
<path fill="#c3e1f7" stroke="#000000" d="M1839.4453,-331.2C1839.4453,-331.2 1744.8513,-331.2 1744.8513,-331.2 1738.8513,-331.2 1732.8513,-325.2 1732.8513,-319.2 1732.8513,-319.2 1732.8513,-251.2 1732.8513,-251.2 1732.8513,-245.2 1738.8513,-239.2 1744.8513,-239.2 1744.8513,-239.2 1839.4453,-239.2 1839.4453,-239.2 1845.4453,-239.2 1851.4453,-245.2 1851.4453,-251.2 1851.4453,-251.2 1851.4453,-319.2 1851.4453,-319.2 1851.4453,-325.2 1845.4453,-331.2 1839.4453,-331.2"/>
<text text-anchor="start" x="1757.1287" y="-314.6" font-family="Helvetica,sans-Serif" font-size="14.00" fill="#000000">Age ≤ 36.5</text>
<text text-anchor="start" x="1755.7707" y="-297.8" font-family="Helvetica,sans-Serif" font-size="14.00" fill="#000000">gini = 0.484</text>
<text text-anchor="start" x="1746.439" y="-281" font-family="Helvetica,sans-Serif" font-size="14.00" fill="#000000">samples = 117</text>
<text text-anchor="start" x="1744.0968" y="-264.2" font-family="Helvetica,sans-Serif" font-size="14.00" fill="#000000">value = [48, 69]</text>
<text text-anchor="start" x="1741" y="-247.4" font-family="Helvetica,sans-Serif" font-size="14.00" fill="#000000">class = Survived</text>
</g>
<!-- 34&#45;&gt;35 -->
<g id="edge35" class="edge">
<title>34-&gt;35</title>
<path fill="none" stroke="#000000" d="M1792.1483,-366.9891C1792.1483,-358.7417 1792.1483,-350.0661 1792.1483,-341.5724"/>
<polygon fill="#000000" stroke="#000000" points="1795.6484,-341.3431 1792.1483,-331.3431 1788.6484,-341.3431 1795.6484,-341.3431"/>
</g>
<!-- 42 -->
<g id="node43" class="node">
<title>42</title>
<path fill="#e89152" stroke="#000000" d="M2022.4692,-331.2C2022.4692,-331.2 1941.8274,-331.2 1941.8274,-331.2 1935.8274,-331.2 1929.8274,-325.2 1929.8274,-319.2 1929.8274,-319.2 1929.8274,-251.2 1929.8274,-251.2 1929.8274,-245.2 1935.8274,-239.2 1941.8274,-239.2 1941.8274,-239.2 2022.4692,-239.2 2022.4692,-239.2 2028.4692,-239.2 2034.4692,-245.2 2034.4692,-251.2 2034.4692,-251.2 2034.4692,-319.2 2034.4692,-319.2 2034.4692,-325.2 2028.4692,-331.2 2022.4692,-331.2"/>
<text text-anchor="start" x="1945.1897" y="-314.6" font-family="Helvetica,sans-Serif" font-size="14.00" fill="#000000">Parch ≤ 0.5</text>
<text text-anchor="start" x="1945.7707" y="-297.8" font-family="Helvetica,sans-Serif" font-size="14.00" fill="#000000">gini = 0.198</text>
<text text-anchor="start" x="1940.3303" y="-281" font-family="Helvetica,sans-Serif" font-size="14.00" fill="#000000">samples = 27</text>
<text text-anchor="start" x="1937.9881" y="-264.2" font-family="Helvetica,sans-Serif" font-size="14.00" fill="#000000">value = [24, 3]</text>
<text text-anchor="start" x="1943.8366" y="-247.4" font-family="Helvetica,sans-Serif" font-size="14.00" fill="#000000">class = Died</text>
</g>
<!-- 34&#45;&gt;42 -->
<g id="edge42" class="edge">
<title>34-&gt;42</title>
<path fill="none" stroke="#000000" d="M1848.3834,-375.3153C1871.3835,-359.8205 1898.0427,-341.8606 1921.4805,-326.0709"/>
<polygon fill="#000000" stroke="#000000" points="1923.619,-328.8504 1929.957,-320.3604 1919.7079,-323.045 1923.619,-328.8504"/>
</g>
<!-- 36 -->
<g id="node37" class="node">
<title>36</title>
<path fill="#b3daf5" stroke="#000000" d="M1779.4453,-203.2C1779.4453,-203.2 1684.8513,-203.2 1684.8513,-203.2 1678.8513,-203.2 1672.8513,-197.2 1672.8513,-191.2 1672.8513,-191.2 1672.8513,-123.2 1672.8513,-123.2 1672.8513,-117.2 1678.8513,-111.2 1684.8513,-111.2 1684.8513,-111.2 1779.4453,-111.2 1779.4453,-111.2 1785.4453,-111.2 1791.4453,-117.2 1791.4453,-123.2 1791.4453,-123.2 1791.4453,-191.2 1791.4453,-191.2 1791.4453,-197.2 1785.4453,-203.2 1779.4453,-203.2"/>
<text text-anchor="start" x="1681.5768" y="-186.6" font-family="Helvetica,sans-Serif" font-size="14.00" fill="#000000">Embarked ≤ 0.5</text>
<text text-anchor="start" x="1695.7707" y="-169.8" font-family="Helvetica,sans-Serif" font-size="14.00" fill="#000000">gini = 0.472</text>
<text text-anchor="start" x="1686.439" y="-153" font-family="Helvetica,sans-Serif" font-size="14.00" fill="#000000">samples = 110</text>
<text text-anchor="start" x="1684.0968" y="-136.2" font-family="Helvetica,sans-Serif" font-size="14.00" fill="#000000">value = [42, 68]</text>
<text text-anchor="start" x="1681" y="-119.4" font-family="Helvetica,sans-Serif" font-size="14.00" fill="#000000">class = Survived</text>
</g>
<!-- 35&#45;&gt;36 -->
<g id="edge36" class="edge">
<title>35-&gt;36</title>
<path fill="none" stroke="#000000" d="M1770.4869,-238.9891C1766.451,-230.3791 1762.1964,-221.3026 1758.0484,-212.4535"/>
<polygon fill="#000000" stroke="#000000" points="1761.1914,-210.9122 1753.7779,-203.3431 1754.8532,-213.8832 1761.1914,-210.9122"/>
</g>
<!-- 39 -->
<g id="node40" class="node">
<title>39</title>
<path fill="#e9965a" stroke="#000000" d="M1893.1872,-203.2C1893.1872,-203.2 1821.1094,-203.2 1821.1094,-203.2 1815.1094,-203.2 1809.1094,-197.2 1809.1094,-191.2 1809.1094,-191.2 1809.1094,-123.2 1809.1094,-123.2 1809.1094,-117.2 1815.1094,-111.2 1821.1094,-111.2 1821.1094,-111.2 1893.1872,-111.2 1893.1872,-111.2 1899.1872,-111.2 1905.1872,-117.2 1905.1872,-123.2 1905.1872,-123.2 1905.1872,-191.2 1905.1872,-191.2 1905.1872,-197.2 1899.1872,-203.2 1893.1872,-203.2"/>
<text text-anchor="start" x="1822.1287" y="-186.6" font-family="Helvetica,sans-Serif" font-size="14.00" fill="#000000">Age ≤ 55.0</text>
<text text-anchor="start" x="1820.7707" y="-169.8" font-family="Helvetica,sans-Serif" font-size="14.00" fill="#000000">gini = 0.245</text>
<text text-anchor="start" x="1819.2216" y="-153" font-family="Helvetica,sans-Serif" font-size="14.00" fill="#000000">samples = 7</text>
<text text-anchor="start" x="1816.8794" y="-136.2" font-family="Helvetica,sans-Serif" font-size="14.00" fill="#000000">value = [6, 1]</text>
<text text-anchor="start" x="1818.8366" y="-119.4" font-family="Helvetica,sans-Serif" font-size="14.00" fill="#000000">class = Died</text>
</g>
<!-- 35&#45;&gt;39 -->
<g id="edge39" class="edge">
<title>35-&gt;39</title>
<path fill="none" stroke="#000000" d="M1815.6148,-238.9891C1819.987,-230.3791 1824.5962,-221.3026 1829.0899,-212.4535"/>
<polygon fill="#000000" stroke="#000000" points="1832.3091,-213.8441 1833.7163,-203.3431 1826.0677,-210.6746 1832.3091,-213.8441"/>
</g>
<!-- 37 -->
<g id="node38" class="node">
<title>37</title>
<path fill="#ebf5fc" stroke="#000000" d="M1643.4453,-75.3003C1643.4453,-75.3003 1548.8513,-75.3003 1548.8513,-75.3003 1542.8513,-75.3003 1536.8513,-69.3003 1536.8513,-63.3003 1536.8513,-63.3003 1536.8513,-11.8997 1536.8513,-11.8997 1536.8513,-5.8997 1542.8513,.1003 1548.8513,.1003 1548.8513,.1003 1643.4453,.1003 1643.4453,.1003 1649.4453,.1003 1655.4453,-5.8997 1655.4453,-11.8997 1655.4453,-11.8997 1655.4453,-63.3003 1655.4453,-63.3003 1655.4453,-69.3003 1649.4453,-75.3003 1643.4453,-75.3003"/>
<text text-anchor="start" x="1559.7707" y="-58.6" font-family="Helvetica,sans-Serif" font-size="14.00" fill="#000000">gini = 0.499</text>
<text text-anchor="start" x="1554.3303" y="-41.8" font-family="Helvetica,sans-Serif" font-size="14.00" fill="#000000">samples = 57</text>
<text text-anchor="start" x="1548.0968" y="-25" font-family="Helvetica,sans-Serif" font-size="14.00" fill="#000000">value = [27, 30]</text>
<text text-anchor="start" x="1545" y="-8.2" font-family="Helvetica,sans-Serif" font-size="14.00" fill="#000000">class = Survived</text>
</g>
<!-- 36&#45;&gt;37 -->
<g id="edge37" class="edge">
<title>36-&gt;37</title>
<path fill="none" stroke="#000000" d="M1679.5671,-110.9595C1668.7405,-101.4385 1657.3635,-91.4333 1646.6138,-81.98"/>
<polygon fill="#000000" stroke="#000000" points="1648.7349,-79.1844 1638.9142,-75.2088 1644.1122,-84.4409 1648.7349,-79.1844"/>
</g>
<!-- 38 -->
<g id="node39" class="node">
<title>38</title>
<path fill="#87c4ef" stroke="#000000" d="M1779.4453,-75.3003C1779.4453,-75.3003 1684.8513,-75.3003 1684.8513,-75.3003 1678.8513,-75.3003 1672.8513,-69.3003 1672.8513,-63.3003 1672.8513,-63.3003 1672.8513,-11.8997 1672.8513,-11.8997 1672.8513,-5.8997 1678.8513,.1003 1684.8513,.1003 1684.8513,.1003 1779.4453,.1003 1779.4453,.1003 1785.4453,.1003 1791.4453,-5.8997 1791.4453,-11.8997 1791.4453,-11.8997 1791.4453,-63.3003 1791.4453,-63.3003 1791.4453,-69.3003 1785.4453,-75.3003 1779.4453,-75.3003"/>
<text text-anchor="start" x="1695.7707" y="-58.6" font-family="Helvetica,sans-Serif" font-size="14.00" fill="#000000">gini = 0.406</text>
<text text-anchor="start" x="1690.3303" y="-41.8" font-family="Helvetica,sans-Serif" font-size="14.00" fill="#000000">samples = 53</text>
<text text-anchor="start" x="1684.0968" y="-25" font-family="Helvetica,sans-Serif" font-size="14.00" fill="#000000">value = [15, 38]</text>
<text text-anchor="start" x="1681" y="-8.2" font-family="Helvetica,sans-Serif" font-size="14.00" fill="#000000">class = Survived</text>
</g>
<!-- 36&#45;&gt;38 -->
<g id="edge38" class="edge">
<title>36-&gt;38</title>
<path fill="none" stroke="#000000" d="M1732.1483,-110.9595C1732.1483,-102.5477 1732.1483,-93.7581 1732.1483,-85.3049"/>
<polygon fill="#000000" stroke="#000000" points="1735.6484,-85.2088 1732.1483,-75.2088 1728.6484,-85.2089 1735.6484,-85.2088"/>
</g>
<!-- 40 -->
<g id="node41" class="node">
<title>40</title>
<path fill="#e58139" stroke="#000000" d="M1893.1872,-75.3003C1893.1872,-75.3003 1821.1094,-75.3003 1821.1094,-75.3003 1815.1094,-75.3003 1809.1094,-69.3003 1809.1094,-63.3003 1809.1094,-63.3003 1809.1094,-11.8997 1809.1094,-11.8997 1809.1094,-5.8997 1815.1094,.1003 1821.1094,.1003 1821.1094,.1003 1893.1872,.1003 1893.1872,.1003 1899.1872,.1003 1905.1872,-5.8997 1905.1872,-11.8997 1905.1872,-11.8997 1905.1872,-63.3003 1905.1872,-63.3003 1905.1872,-69.3003 1899.1872,-75.3003 1893.1872,-75.3003"/>
<text text-anchor="start" x="1828.5533" y="-58.6" font-family="Helvetica,sans-Serif" font-size="14.00" fill="#000000">gini = 0.0</text>
<text text-anchor="start" x="1819.2216" y="-41.8" font-family="Helvetica,sans-Serif" font-size="14.00" fill="#000000">samples = 6</text>
<text text-anchor="start" x="1816.8794" y="-25" font-family="Helvetica,sans-Serif" font-size="14.00" fill="#000000">value = [6, 0]</text>
<text text-anchor="start" x="1818.8366" y="-8.2" font-family="Helvetica,sans-Serif" font-size="14.00" fill="#000000">class = Died</text>
</g>
<!-- 39&#45;&gt;40 -->
<g id="edge40" class="edge">
<title>39-&gt;40</title>
<path fill="none" stroke="#000000" d="M1857.1483,-110.9595C1857.1483,-102.5477 1857.1483,-93.7581 1857.1483,-85.3049"/>
<polygon fill="#000000" stroke="#000000" points="1860.6484,-85.2088 1857.1483,-75.2088 1853.6484,-85.2089 1860.6484,-85.2088"/>
</g>
<!-- 41 -->
<g id="node42" class="node">
<title>41</title>
<path fill="#399de5" stroke="#000000" d="M2029.4453,-75.3003C2029.4453,-75.3003 1934.8513,-75.3003 1934.8513,-75.3003 1928.8513,-75.3003 1922.8513,-69.3003 1922.8513,-63.3003 1922.8513,-63.3003 1922.8513,-11.8997 1922.8513,-11.8997 1922.8513,-5.8997 1928.8513,.1003 1934.8513,.1003 1934.8513,.1003 2029.4453,.1003 2029.4453,.1003 2035.4453,.1003 2041.4453,-5.8997 2041.4453,-11.8997 2041.4453,-11.8997 2041.4453,-63.3003 2041.4453,-63.3003 2041.4453,-69.3003 2035.4453,-75.3003 2029.4453,-75.3003"/>
<text text-anchor="start" x="1953.5533" y="-58.6" font-family="Helvetica,sans-Serif" font-size="14.00" fill="#000000">gini = 0.0</text>
<text text-anchor="start" x="1944.2216" y="-41.8" font-family="Helvetica,sans-Serif" font-size="14.00" fill="#000000">samples = 1</text>
<text text-anchor="start" x="1941.8794" y="-25" font-family="Helvetica,sans-Serif" font-size="14.00" fill="#000000">value = [0, 1]</text>
<text text-anchor="start" x="1931" y="-8.2" font-family="Helvetica,sans-Serif" font-size="14.00" fill="#000000">class = Survived</text>
</g>
<!-- 39&#45;&gt;41 -->
<g id="edge41" class="edge">
<title>39-&gt;41</title>
<path fill="none" stroke="#000000" d="M1905.4766,-110.9595C1915.3309,-101.5309 1925.6814,-91.6276 1935.4766,-82.2555"/>
<polygon fill="#000000" stroke="#000000" points="1938.0356,-84.651 1942.8414,-75.2088 1933.1963,-79.5932 1938.0356,-84.651"/>
</g>
<!-- 43 -->
<g id="node44" class="node">
<title>43</title>
<path fill="#399de5" stroke="#000000" d="M2029.4453,-194.9003C2029.4453,-194.9003 1934.8513,-194.9003 1934.8513,-194.9003 1928.8513,-194.9003 1922.8513,-188.9003 1922.8513,-182.9003 1922.8513,-182.9003 1922.8513,-131.4997 1922.8513,-131.4997 1922.8513,-125.4997 1928.8513,-119.4997 1934.8513,-119.4997 1934.8513,-119.4997 2029.4453,-119.4997 2029.4453,-119.4997 2035.4453,-119.4997 2041.4453,-125.4997 2041.4453,-131.4997 2041.4453,-131.4997 2041.4453,-182.9003 2041.4453,-182.9003 2041.4453,-188.9003 2035.4453,-194.9003 2029.4453,-194.9003"/>
<text text-anchor="start" x="1953.5533" y="-178.2" font-family="Helvetica,sans-Serif" font-size="14.00" fill="#000000">gini = 0.0</text>
<text text-anchor="start" x="1944.2216" y="-161.4" font-family="Helvetica,sans-Serif" font-size="14.00" fill="#000000">samples = 1</text>
<text text-anchor="start" x="1941.8794" y="-144.6" font-family="Helvetica,sans-Serif" font-size="14.00" fill="#000000">value = [0, 1]</text>
<text text-anchor="start" x="1931" y="-127.8" font-family="Helvetica,sans-Serif" font-size="14.00" fill="#000000">class = Survived</text>
</g>
<!-- 42&#45;&gt;43 -->
<g id="edge43" class="edge">
<title>42-&gt;43</title>
<path fill="none" stroke="#000000" d="M1982.1483,-238.9891C1982.1483,-228.0272 1982.1483,-216.309 1982.1483,-205.2667"/>
<polygon fill="#000000" stroke="#000000" points="1985.6484,-204.9335 1982.1483,-194.9335 1978.6484,-204.9335 1985.6484,-204.9335"/>
</g>
<!-- 44 -->
<g id="node45" class="node">
<title>44</title>
<path fill="#e78c49" stroke="#000000" d="M2151.4692,-203.2C2151.4692,-203.2 2070.8274,-203.2 2070.8274,-203.2 2064.8274,-203.2 2058.8274,-197.2 2058.8274,-191.2 2058.8274,-191.2 2058.8274,-123.2 2058.8274,-123.2 2058.8274,-117.2 2064.8274,-111.2 2070.8274,-111.2 2070.8274,-111.2 2151.4692,-111.2 2151.4692,-111.2 2157.4692,-111.2 2163.4692,-117.2 2163.4692,-123.2 2163.4692,-123.2 2163.4692,-191.2 2163.4692,-191.2 2163.4692,-197.2 2157.4692,-203.2 2151.4692,-203.2"/>
<text text-anchor="start" x="2080.02" y="-186.6" font-family="Helvetica,sans-Serif" font-size="14.00" fill="#000000">Age ≤ 5.5</text>
<text text-anchor="start" x="2074.7707" y="-169.8" font-family="Helvetica,sans-Serif" font-size="14.00" fill="#000000">gini = 0.142</text>
<text text-anchor="start" x="2069.3303" y="-153" font-family="Helvetica,sans-Serif" font-size="14.00" fill="#000000">samples = 26</text>
<text text-anchor="start" x="2066.9881" y="-136.2" font-family="Helvetica,sans-Serif" font-size="14.00" fill="#000000">value = [24, 2]</text>
<text text-anchor="start" x="2072.8366" y="-119.4" font-family="Helvetica,sans-Serif" font-size="14.00" fill="#000000">class = Died</text>
</g>
<!-- 42&#45;&gt;44 -->
<g id="edge44" class="edge">
<title>42-&gt;44</title>
<path fill="none" stroke="#000000" d="M2028.7203,-238.9891C2038.0368,-229.7447 2047.8955,-219.9625 2057.4306,-210.5013"/>
<polygon fill="#000000" stroke="#000000" points="2060.0114,-212.8711 2064.6447,-203.3431 2055.0809,-207.9021 2060.0114,-212.8711"/>
</g>
<!-- 45 -->
<g id="node46" class="node">
<title>45</title>
<path fill="#f2c09c" stroke="#000000" d="M2145.1872,-75.3003C2145.1872,-75.3003 2073.1094,-75.3003 2073.1094,-75.3003 2067.1094,-75.3003 2061.1094,-69.3003 2061.1094,-63.3003 2061.1094,-63.3003 2061.1094,-11.8997 2061.1094,-11.8997 2061.1094,-5.8997 2067.1094,.1003 2073.1094,.1003 2073.1094,.1003 2145.1872,.1003 2145.1872,.1003 2151.1872,.1003 2157.1872,-5.8997 2157.1872,-11.8997 2157.1872,-11.8997 2157.1872,-63.3003 2157.1872,-63.3003 2157.1872,-69.3003 2151.1872,-75.3003 2145.1872,-75.3003"/>
<text text-anchor="start" x="2072.7707" y="-58.6" font-family="Helvetica,sans-Serif" font-size="14.00" fill="#000000">gini = 0.444</text>
<text text-anchor="start" x="2071.2216" y="-41.8" font-family="Helvetica,sans-Serif" font-size="14.00" fill="#000000">samples = 3</text>
<text text-anchor="start" x="2068.8794" y="-25" font-family="Helvetica,sans-Serif" font-size="14.00" fill="#000000">value = [2, 1]</text>
<text text-anchor="start" x="2070.8366" y="-8.2" font-family="Helvetica,sans-Serif" font-size="14.00" fill="#000000">class = Died</text>
</g>
<!-- 44&#45;&gt;45 -->
<g id="edge45" class="edge">
<title>44-&gt;45</title>
<path fill="none" stroke="#000000" d="M2110.375,-110.9595C2110.2344,-102.5477 2110.0874,-93.7581 2109.946,-85.3049"/>
<polygon fill="#000000" stroke="#000000" points="2113.444,-85.1489 2109.7772,-75.2088 2106.445,-85.266 2113.444,-85.1489"/>
</g>
<!-- 46 -->
<g id="node47" class="node">
<title>46</title>
<path fill="#e68742" stroke="#000000" d="M2267.4692,-75.3003C2267.4692,-75.3003 2186.8274,-75.3003 2186.8274,-75.3003 2180.8274,-75.3003 2174.8274,-69.3003 2174.8274,-63.3003 2174.8274,-63.3003 2174.8274,-11.8997 2174.8274,-11.8997 2174.8274,-5.8997 2180.8274,.1003 2186.8274,.1003 2186.8274,.1003 2267.4692,.1003 2267.4692,.1003 2273.4692,.1003 2279.4692,-5.8997 2279.4692,-11.8997 2279.4692,-11.8997 2279.4692,-63.3003 2279.4692,-63.3003 2279.4692,-69.3003 2273.4692,-75.3003 2267.4692,-75.3003"/>
<text text-anchor="start" x="2190.7707" y="-58.6" font-family="Helvetica,sans-Serif" font-size="14.00" fill="#000000">gini = 0.083</text>
<text text-anchor="start" x="2185.3303" y="-41.8" font-family="Helvetica,sans-Serif" font-size="14.00" fill="#000000">samples = 23</text>
<text text-anchor="start" x="2182.9881" y="-25" font-family="Helvetica,sans-Serif" font-size="14.00" fill="#000000">value = [22, 1]</text>
<text text-anchor="start" x="2188.8366" y="-8.2" font-family="Helvetica,sans-Serif" font-size="14.00" fill="#000000">class = Died</text>
</g>
<!-- 44&#45;&gt;46 -->
<g id="edge46" class="edge">
<title>44-&gt;46</title>
<path fill="none" stroke="#000000" d="M2155.9969,-110.9595C2165.0521,-101.6233 2174.5587,-91.8217 2183.5695,-82.5313"/>
<polygon fill="#000000" stroke="#000000" points="2186.2217,-84.8239 2190.6715,-75.2088 2181.1969,-79.9503 2186.2217,-84.8239"/>
</g>
</g>
</svg>