<?xml version="1.0" encoding="UTF-8" standalone="no"?><!DOCTYPE svg PUBLIC "-//W3C//DTD SVG 1.1//EN" "http://www.w3.org/Graphics/SVG/1.1/DTD/svg11.dtd"><!-- Generated by graphviz version 2.40.1 (20161225.0304)
 --><!-- Title: Tree Pages: 1 --><svg xmlns="http://www.w3.org/2000/svg" xmlns:xlink="http://www.w3.org/1999/xlink" width="532pt" height="339pt" viewBox="0.00 0.00 532.20 339.20">
<g id="graph0" class="graph" transform="scale(1 1) rotate(0) translate(4 335.2)">
<title>Tree</title>
<polygon fill="#ffffff" stroke="transparent" points="-4,4 -4,-335.2 528.1998,-335.2 528.1998,4 -4,4"/>
<!-- 0 -->
<g id="node1" class="node">
<title>0</title>
<path fill="#f5cfb4" stroke="#000000" d="M316.8169,-331.2C316.8169,-331.2 213.4797,-331.2 213.4797,-331.2 207.4797,-331.2 201.4797,-325.2 201.4797,-319.2 201.4797,-319.2 201.4797,-251.2 201.4797,-251.2 201.4797,-245.2 207.4797,-239.2 213.4797,-239.2 213.4797,-239.2 316.8169,-239.2 316.8169,-239.2 322.8169,-239.2 328.8169,-245.2 328.8169,-251.2 328.8169,-251.2 328.8169,-319.2 328.8169,-319.2 328.8169,-325.2 322.8169,-331.2 316.8169,-331.2"/>
<text text-anchor="start" x="234.4113" y="-314.6" font-family="Helvetica,sans-Serif" font-size="14.00" fill="#000000">Sex ≤ 0.5</text>
<text text-anchor="start" x="228.7707" y="-297.8" font-family="Helvetica,sans-Serif" font-size="14.00" fill="#000000">gini = 0.473</text>
<text text-anchor="start" x="219.439" y="-281" font-family="Helvetica,sans-Serif" font-size="14.00" fill="#000000">samples = 891</text>
<text text-anchor="start" x="209.3142" y="-264.2" font-family="Helvetica,sans-Serif" font-size="14.00" fill="#000000">value = [549, 342]</text>
<text text-anchor="start" x="226.8366" y="-247.4" font-family="Helvetica,sans-Serif" font-size="14.00" fill="#000000">class = Died</text>
</g>
<!-- 1 -->
<g id="node2" class="node">
<title>1</title>
<path fill="#eb9e67" stroke="#000000" d="M245.8169,-203.2C245.8169,-203.2 142.4797,-203.2 142.4797,-203.2 136.4797,-203.2 130.4797,-197.2 130.4797,-191.2 130.4797,-191.2 130.4797,-123.2 130.4797,-123.2 130.4797,-117.2 136.4797,-111.2 142.4797,-111.2 142.4797,-111.2 245.8169,-111.2 245.8169,-111.2 251.8169,-111.2 257.8169,-117.2 257.8169,-123.2 257.8169,-123.2 257.8169,-191.2 257.8169,-191.2 257.8169,-197.2 251.8169,-203.2 245.8169,-203.2"/>
<text text-anchor="start" x="163.02" y="-186.6" font-family="Helvetica,sans-Serif" font-size="14.00" fill="#000000">Age ≤ 6.5</text>
<text text-anchor="start" x="157.7707" y="-169.8" font-family="Helvetica,sans-Serif" font-size="14.00" fill="#000000">gini = 0.306</text>
<text text-anchor="start" x="148.439" y="-153" font-family="Helvetica,sans-Serif" font-size="14.00" fill="#000000">samples = 577</text>
<text text-anchor="start" x="138.3142" y="-136.2" font-family="Helvetica,sans-Serif" font-size="14.00" fill="#000000">value = [468, 109]</text>
<text text-anchor="start" x="155.8366" y="-119.4" font-family="Helvetica,sans-Serif" font-size="14.00" fill="#000000">class = Died</text>
</g>
<!-- 0&#45;&gt;1 -->
<g id="edge1" class="edge">
<title>0-&gt;1</title>
<path fill="none" stroke="#000000" d="M239.5157,-238.9891C234.6896,-230.2885 229.5992,-221.1115 224.6417,-212.1741"/>
<polygon fill="#000000" stroke="#000000" points="227.6547,-210.3902 219.7433,-203.3431 221.5333,-213.7856 227.6547,-210.3902"/>
<text text-anchor="middle" x="212.8593" y="-223.1766" font-family="Helvetica,sans-Serif" font-size="14.00" fill="#000000">True</text>
</g>
<!-- 4 -->
<g id="node5" class="node">
<title>4</title>
<path fill="#7ebfee" stroke="#000000" d="M384.034,-203.2C384.034,-203.2 288.2626,-203.2 288.2626,-203.2 282.2626,-203.2 276.2626,-197.2 276.2626,-191.2 276.2626,-191.2 276.2626,-123.2 276.2626,-123.2 276.2626,-117.2 282.2626,-111.2 288.2626,-111.2 288.2626,-111.2 384.034,-111.2 384.034,-111.2 390.034,-111.2 396.034,-117.2 396.034,-123.2 396.034,-123.2 396.034,-191.2 396.034,-191.2 396.034,-197.2 390.034,-203.2 384.034,-203.2"/>
<text text-anchor="start" x="296.858" y="-186.6" font-family="Helvetica,sans-Serif" font-size="14.00" fill="#000000">Pclass ≤ 2.5</text>
<text text-anchor="start" x="299.7707" y="-169.8" font-family="Helvetica,sans-Serif" font-size="14.00" fill="#000000">gini = 0.383</text>
<text text-anchor="start" x="290.439" y="-153" font-family="Helvetica,sans-Serif" font-size="14.00" fill="#000000">samples = 314</text>
<text text-anchor="start" x="284.2055" y="-136.2" font-family="Helvetica,sans-Serif" font-size="14.00" fill="#000000">value = [81, 233]</text>
<text text-anchor="start" x="285" y="-119.4" font-family="Helvetica,sans-Serif" font-size="14.00" fill="#000000">class = Survived</text>
</g>
<!-- 0&#45;&gt;4 -->
<g id="edge4" class="edge">
<title>0-&gt;4</title>
<path fill="none" stroke="#000000" d="M290.7809,-238.9891C295.607,-230.2885 300.6974,-221.1115 305.6549,-212.1741"/>
<polygon fill="#000000" stroke="#000000" points="308.7633,-213.7856 310.5533,-203.3431 302.6419,-210.3902 308.7633,-213.7856"/>
<text text-anchor="middle" x="317.4373" y="-223.1766" font-family="Helvetica,sans-Serif" font-size="14.00" fill="#000000">False</text>
</g>
<!-- 2 -->
<g id="node3" class="node">
<title>2</title>
<path fill="#9ccef2" stroke="#000000" d="M106.4453,-75.3003C106.4453,-75.3003 11.8513,-75.3003 11.8513,-75.3003 5.8513,-75.3003 -.1487,-69.3003 -.1487,-63.3003 -.1487,-63.3003 -.1487,-11.8997 -.1487,-11.8997 -.1487,-5.8997 5.8513,.1003 11.8513,.1003 11.8513,.1003 106.4453,.1003 106.4453,.1003 112.4453,.1003 118.4453,-5.8997 118.4453,-11.8997 118.4453,-11.8997 118.4453,-63.3003 118.4453,-63.3003 118.4453,-69.3003 112.4453,-75.3003 106.4453,-75.3003"/>
<text text-anchor="start" x="22.7707" y="-58.6" font-family="Helvetica,sans-Serif" font-size="14.00" fill="#000000">gini = 0.444</text>
<text text-anchor="start" x="17.3303" y="-41.8" font-family="Helvetica,sans-Serif" font-size="14.00" fill="#000000">samples = 24</text>
<text text-anchor="start" x="14.9881" y="-25" font-family="Helvetica,sans-Serif" font-size="14.00" fill="#000000">value = [8, 16]</text>
<text text-anchor="start" x="8" y="-8.2" font-family="Helvetica,sans-Serif" font-size="14.00" fill="#000000">class = Survived</text>
</g>
<!-- 1&#45;&gt;2 -->
<g id="edge2" class="edge">
<title>1-&gt;2</title>
<path fill="none" stroke="#000000" d="M141.9538,-110.9595C131.2068,-101.4385 119.9134,-91.4333 109.2428,-81.98"/>
<polygon fill="#000000" stroke="#000000" points="111.4058,-79.2203 101.5997,-75.2088 106.7639,-84.4599 111.4058,-79.2203"/>
</g>
<!-- 3 -->
<g id="node4" class="node">
<title>3</title>
<path fill="#ea9a61" stroke="#000000" d="M244.034,-75.3003C244.034,-75.3003 148.2626,-75.3003 148.2626,-75.3003 142.2626,-75.3003 136.2626,-69.3003 136.2626,-63.3003 136.2626,-63.3003 136.2626,-11.8997 136.2626,-11.8997 136.2626,-5.8997 142.2626,.1003 148.2626,.1003 148.2626,.1003 244.034,.1003 244.034,.1003 250.034,.1003 256.034,-5.8997 256.034,-11.8997 256.034,-11.8997 256.034,-63.3003 256.034,-63.3003 256.034,-69.3003 250.034,-75.3003 244.034,-75.3003"/>
<text text-anchor="start" x="163.662" y="-58.6" font-family="Helvetica,sans-Serif" font-size="14.00" fill="#000000">gini = 0.28</text>
<text text-anchor="start" x="150.439" y="-41.8" font-family="Helvetica,sans-Serif" font-size="14.00" fill="#000000">samples = 553</text>
<text text-anchor="start" x="144.2055" y="-25" font-family="Helvetica,sans-Serif" font-size="14.00" fill="#000000">value = [460, 93]</text>
<text text-anchor="start" x="157.8366" y="-8.2" font-family="Helvetica,sans-Serif" font-size="14.00" fill="#000000">class = Died</text>
</g>
<!-- 1&#45;&gt;3 -->
<g id="edge3" class="edge">
<title>1-&gt;3</title>
<path fill="none" stroke="#000000" d="M194.9216,-110.9595C195.0622,-102.5477 195.2092,-93.7581 195.3506,-85.3049"/>
<polygon fill="#000000" stroke="#000000" points="198.8516,-85.266 195.5194,-75.2088 191.8526,-85.1489 198.8516,-85.266"/>
</g>
<!-- 5 -->
<g id="node6" class="node">
<title>5</title>
<path fill="#44a2e6" stroke="#000000" d="M382.4453,-75.3003C382.4453,-75.3003 287.8513,-75.3003 287.8513,-75.3003 281.8513,-75.3003 275.8513,-69.3003 275.8513,-63.3003 275.8513,-63.3003 275.8513,-11.8997 275.8513,-11.8997 275.8513,-5.8997 281.8513,.1003 287.8513,.1003 287.8513,.1003 382.4453,.1003 382.4453,.1003 388.4453,.1003 394.4453,-5.8997 394.4453,-11.8997 394.4453,-11.8997 394.4453,-63.3003 394.4453,-63.3003 394.4453,-69.3003 388.4453,-75.3003 382.4453,-75.3003"/>
<text text-anchor="start" x="306.5533" y="-58.6" font-family="Helvetica,sans-Serif" font-size="14.00" fill="#000000">gini = 0.1</text>
<text text-anchor="start" x="289.439" y="-41.8" font-family="Helvetica,sans-Serif" font-size="14.00" fill="#000000">samples = 170</text>
<text text-anchor="start" x="287.0968" y="-25" font-family="Helvetica,sans-Serif" font-size="14.00" fill="#000000">value = [9, 161]</text>
<text text-anchor="start" x="284" y="-8.2" font-family="Helvetica,sans-Serif" font-size="14.00" fill="#000000">class = Survived</text>
</g>
<!-- 4&#45;&gt;5 -->
<g id="edge5" class="edge">
<title>4-&gt;5</title>
<path fill="none" stroke="#000000" d="M335.7617,-110.9595C335.6913,-102.5477 335.6178,-93.7581 335.5472,-85.3049"/>
<polygon fill="#000000" stroke="#000000" points="339.0463,-85.1792 335.4628,-75.2088 332.0466,-85.2378 339.0463,-85.1792"/>
</g>
<!-- 6 -->
<g id="node7" class="node">
<title>6</title>
<path fill="#ffffff" stroke="#000000" d="M512.2513,-75.3003C512.2513,-75.3003 424.0453,-75.3003 424.0453,-75.3003 418.0453,-75.3003 412.0453,-69.3003 412.0453,-63.3003 412.0453,-63.3003 412.0453,-11.8997 412.0453,-11.8997 412.0453,-5.8997 418.0453,.1003 424.0453,.1003 424.0453,.1003 512.2513,.1003 512.2513,.1003 518.2513,.1003 524.2513,-5.8997 524.2513,-11.8997 524.2513,-11.8997 524.2513,-63.3003 524.2513,-63.3003 524.2513,-69.3003 518.2513,-75.3003 512.2513,-75.3003"/>
<text text-anchor="start" x="439.5533" y="-58.6" font-family="Helvetica,sans-Serif" font-size="14.00" fill="#000000">gini = 0.5</text>
<text text-anchor="start" x="422.439" y="-41.8" font-family="Helvetica,sans-Serif" font-size="14.00" fill="#000000">samples = 144</text>
<text text-anchor="start" x="420.0968" y="-25" font-family="Helvetica,sans-Serif" font-size="14.00" fill="#000000">value = [72, 72]</text>
<text text-anchor="start" x="429.8366" y="-8.2" font-family="Helvetica,sans-Serif" font-size="14.00" fill="#000000">class = Died</text>
</g>
<!-- 4&#45;&gt;6 -->
<g id="edge6" class="edge">
<title>4-&gt;6</title>
<path fill="none" stroke="#000000" d="M387.1829,-110.9595C397.6911,-101.4385 408.7336,-91.4333 419.167,-81.98"/>
<polygon fill="#000000" stroke="#000000" points="421.5797,-84.517 426.6402,-75.2088 416.8796,-79.3296 421.5797,-84.517"/>
</g>
</g>
</svg>